<svg width="47" height="44" viewBox="0 0 47 44" fill="none" xmlns="http://www.w3.org/2000/svg">
<path d="M31.155 29.5056C39.5999 29.5056 46.4458 22.9006 46.4458 14.7528C46.4458 6.60506 39.5999 0 31.155 0C22.7102 0 15.8643 6.60506 15.8643 14.7528C15.8643 22.9006 22.7102 29.5056 31.155 29.5056Z" fill="white"/>
<path d="M19.6867 34.6692C19.6867 34.6692 19.142 34.6692 18.1576 34.6692V37.6197V42.7832H0.573242V11.8024C0.573242 10.991 1.26133 10.3271 2.10232 10.3271H6.68955C7.53054 10.3271 8.21863 10.991 8.21863 11.8024V23.6046V26.5552H10.7798C10.6078 26.7765 10.5122 27.0162 10.5122 27.2928C10.5122 28.3439 11.8502 29.0816 14.3349 28.7681C15.9787 28.5652 21.2731 27.5325 22.3626 27.1084C22.5251 27.0531 22.6493 26.8502 22.764 26.5552H24.1975C24.6371 26.5552 25.048 26.7304 25.3347 27.0439C25.6214 27.3574 25.7648 27.7723 25.717 28.1872C25.287 32.1704 23.1845 34.6692 19.6867 34.6692Z" fill="white"/>
<path d="M20.6424 10.3276C20.6424 10.3276 22.2862 11.7936 22.3053 12.227C20.3079 13.1122 18.9222 15.2236 18.9222 16.9663C13.9527 16.9663 12.7868 14.4952 12.8059 12.5405C12.825 10.6411 14.7172 8.85229 16.6286 8.85229C19.4383 8.85229 20.6424 10.3276 20.6424 10.3276Z" fill="white"/>
<path d="M34.4616 38.2283L37.2713 38.3574C37.2713 38.3574 38.829 38.3574 41.8585 38.3574C44.888 38.3574 46.4457 39.7773 46.4457 41.3079C46.4457 42.8385 44.9166 42.7832 44.9166 42.7832C44.9166 42.7832 33.8882 42.7832 31.9195 42.7832C29.1863 42.7832 26.6251 42.7832 26.6251 39.8603C26.6251 37.0296 30.7727 31.5342 32.6267 29.2199C32.1489 29.0539 30.3904 28.0212 30.3904 28.0212C27.6667 26.546 25.0578 22.4428 23.4522 21.6591C23.3758 23.2635 23.2038 25.504 22.7737 26.546C22.659 26.841 22.5252 27.0439 22.3723 27.0992C21.2829 27.5233 15.9884 28.556 14.3447 28.7589C11.8599 29.0724 10.522 28.3347 10.522 27.2836C10.522 27.007 10.6175 26.7672 10.7896 26.546H10.7991C12.2326 24.6742 18.9319 24.333 18.9319 24.333C18.9319 24.333 18.9319 19.2249 18.9319 16.9567C18.9319 15.214 20.3176 13.1025 22.315 12.2174C22.9266 11.9407 23.5956 11.7932 24.2837 11.7932C33.3243 11.7932 42.6326 22.9869 42.6326 27.2836C42.623 30.7044 36.8508 36.126 34.4616 38.2283Z" fill="black"/>
<path d="M19.6869 35.2224H10.5124C7.79829 35.2224 5.71492 33.8024 4.64457 31.2298C4.52989 30.944 4.67324 30.6213 4.95994 30.5106C5.2562 30.4 5.59069 30.5383 5.70537 30.8149C6.6037 32.9726 8.26657 34.1159 10.5124 34.1159H19.6869C21.2255 34.1159 22.4774 33.5903 23.414 32.5576C24.341 31.5341 24.9431 30.0035 25.1438 28.1317C25.1724 27.8735 25.0864 27.6153 24.9048 27.4125C24.7233 27.2281 24.4652 27.1082 24.1976 27.1082H22.7641C22.4488 27.1082 22.1907 26.8592 22.1907 26.555C22.1907 26.2507 22.4488 26.0017 22.7641 26.0017H24.1976C24.7902 26.0017 25.3636 26.2414 25.7649 26.6748C26.1663 27.1082 26.3575 27.6799 26.2906 28.2516C26.0612 30.3815 25.3827 32.0782 24.2837 33.2953C23.1368 34.5493 21.5409 35.2224 19.6869 35.2224Z" fill="black"/>
<path d="M8.21885 27.1084H4.39616C4.08079 27.1084 3.82275 26.8594 3.82275 26.5551C3.82275 26.2507 4.08079 26.0017 4.39616 26.0017H8.21885C8.53422 26.0017 8.79225 26.2507 8.79225 26.5551C8.79225 26.8594 8.53422 27.1084 8.21885 27.1084Z" fill="black"/>
<path d="M18.1578 43.3362H0.573404C0.258032 43.3362 0 43.0872 0 42.783V11.8022C0 10.6865 0.946116 9.77368 2.10248 9.77368H6.68971C7.84607 9.77368 8.79219 10.6865 8.79219 11.8022V23.6044C8.79219 23.9087 8.53416 24.1576 8.21879 24.1576C7.90341 24.1576 7.64538 23.9087 7.64538 23.6044V11.8022C7.64538 11.2951 7.21533 10.8801 6.68971 10.8801H2.10248C1.57686 10.8801 1.14681 11.2951 1.14681 11.8022V42.2297H17.5844V37.6195C17.5844 37.3152 17.8424 37.0663 18.1578 37.0663C18.4732 37.0663 18.7312 37.3152 18.7312 37.6195V42.783C18.7312 43.0872 18.4732 43.3362 18.1578 43.3362Z" fill="black"/>
<path d="M44.9454 43.3362C44.9359 43.3362 44.9167 43.3362 44.9072 43.3362H31.9196C30.4765 43.3362 29.1195 43.3362 28.0396 42.9305C26.7207 42.4418 26.0518 41.4091 26.0518 39.86C26.0518 38.5323 26.8545 36.5775 28.4409 34.0603C29.6929 32.0687 31.1646 30.1508 32.1681 28.8876C32.7032 28.2237 33.0473 27.8272 33.0568 27.8088C33.2575 27.5691 33.6207 27.5414 33.8596 27.735C34.1081 27.9287 34.1368 28.279 33.9361 28.5096C33.9361 28.5096 33.592 28.9153 33.0664 29.5699C29.3871 34.1617 27.189 38.0159 27.189 39.8693C27.189 42.1283 28.8901 42.2389 31.91 42.2389H44.9072C44.9167 42.2389 44.9263 42.2389 44.9263 42.2389C44.955 42.2389 45.3659 42.2389 45.6239 41.99C45.7768 41.8425 45.8533 41.6212 45.8533 41.3077C45.8533 39.6572 43.7699 38.9103 41.8395 38.9103H37.2522C36.9369 38.9103 36.6788 38.6614 36.6788 38.3571C36.6788 38.0528 36.9369 37.8039 37.2522 37.8039H41.8395C43.3781 37.8039 44.6778 38.1542 45.6048 38.8089C46.5032 39.4451 47.0001 40.3303 47.0001 41.3077C47.0001 42.0822 46.6752 42.534 46.4076 42.7922C45.882 43.2993 45.1461 43.3362 44.9454 43.3362Z" fill="black"/>
<path d="M33.4487 39.6479C33.2862 39.6479 33.1238 39.5834 33.0187 39.4543C32.8084 39.2238 32.8371 38.8734 33.076 38.6706C33.076 38.6706 33.4678 38.3479 34.0795 37.8131C35.1594 36.8634 37.2332 34.964 38.9916 32.8986C40.989 30.5474 42.0498 28.6111 42.0498 27.2926C42.0498 25.5315 40.1193 21.8802 36.4304 18.3303C32.5026 14.5315 28.0683 12.3555 24.2743 12.3555C23.6817 12.3555 23.0988 12.4846 22.5445 12.7335C20.8338 13.4896 19.4959 15.3521 19.4959 16.9657V24.342C19.4959 24.6371 19.257 24.8768 18.9512 24.8953C18.932 24.8953 17.2787 24.9782 15.4821 25.2917C12.4621 25.8173 11.5351 26.5088 11.2484 26.8777C11.0573 27.1266 10.7037 27.1727 10.4457 26.9975C10.1876 26.8131 10.1399 26.472 10.3214 26.223C11.6689 24.4619 16.6098 23.9456 18.3491 23.8165V16.9657C18.3491 14.9188 19.9451 12.669 22.0666 11.7285C22.7738 11.415 23.5193 11.249 24.2743 11.249C26.4914 11.249 28.8328 11.8852 31.2316 13.13C33.2862 14.1996 35.3601 15.7209 37.2523 17.5466C40.7501 20.9213 43.1966 24.9321 43.1966 27.2926C43.1966 28.8969 42.0784 31.0176 39.8804 33.5993C38.0742 35.72 35.9526 37.6563 34.8536 38.6337C34.2228 39.1777 33.8405 39.5004 33.8214 39.5096C33.7163 39.6018 33.5825 39.6479 33.4487 39.6479Z" fill="black"/>
<path d="M13.2647 29.3948C12.0988 29.3948 11.1718 29.1366 10.5888 28.6387C10.1588 28.2791 9.93896 27.8089 9.93896 27.2925C9.93896 26.9145 10.0632 26.5549 10.3212 26.2229C10.5124 25.974 10.866 25.9279 11.124 26.1031C11.382 26.2875 11.4298 26.6286 11.2482 26.8776C11.1431 27.0159 11.0953 27.145 11.0953 27.2833C11.0953 27.4769 11.1813 27.6521 11.3534 27.7996C11.8503 28.2238 12.9398 28.3805 14.2682 28.2146C15.931 28.0025 21.0343 27.0067 22.1142 26.6102C22.1334 26.5825 22.1811 26.5088 22.2385 26.3613V26.352C22.4487 25.8265 22.7354 24.5909 22.8788 21.6496C22.9361 20.6354 22.9361 19.8608 22.9361 19.8516C22.9361 19.5473 23.1942 19.3076 23.5095 19.3076C23.5095 19.3076 23.5095 19.3076 23.5191 19.3076C23.8345 19.3076 24.0925 19.5566 24.0829 19.8701C24.0829 19.8977 24.0734 20.6722 24.0256 21.7049C23.9109 24.1852 23.6624 25.8818 23.3088 26.7577C23.1942 27.062 22.9935 27.4677 22.5825 27.6245C21.407 28.0855 16.0553 29.1089 14.4211 29.321C14.0101 29.3671 13.6279 29.3948 13.2647 29.3948Z" fill="black"/>
<path d="M22.3053 12.7886C22.0091 12.7886 21.7702 12.5765 21.7319 12.3091C21.6172 12.0694 20.9387 11.3503 20.2506 10.7417C20.0213 10.5297 20.0022 10.1885 20.222 9.95804C20.4418 9.73676 20.7954 9.71832 21.0343 9.93038C22.8501 11.5531 22.8692 12.0602 22.8787 12.2169C22.8787 12.2262 22.8787 12.2262 22.8787 12.2354C22.8787 12.5396 22.6207 12.7886 22.3053 12.7886Z" fill="#252525"/>
<path d="M18.9224 17.5188C16.495 17.5188 14.6888 16.9564 13.542 15.8315C12.443 14.7527 12.2232 13.4435 12.2327 12.5307C12.2614 10.3547 14.3925 8.29858 16.6288 8.29858C19.6774 8.29858 21.0345 9.91212 21.0918 9.98588C21.2925 10.2256 21.2447 10.576 20.9962 10.7604C20.7478 10.954 20.3846 10.9079 20.1935 10.6682C20.1552 10.6221 19.0944 9.40501 16.6288 9.40501C15.0042 9.40501 13.3986 10.9632 13.3795 12.5491C13.37 13.2498 13.5324 14.2548 14.3543 15.057C15.2813 15.9606 16.8104 16.4124 18.9224 16.4124C19.2378 16.4124 19.4958 16.6613 19.4958 16.9656C19.4958 17.2699 19.2378 17.5188 18.9224 17.5188Z" fill="#252525"/>
<path d="M30.3905 28.5835C30.2949 28.5835 30.1993 28.5651 30.1133 28.5097C28.5269 27.643 27.0265 25.9925 25.6981 24.5449C24.7329 23.4753 23.8154 22.4702 23.1943 22.166C22.9076 22.0277 22.7929 21.6957 22.9362 21.4191C23.0796 21.1425 23.4236 21.0318 23.7103 21.1701C24.5322 21.5666 25.4783 22.6086 26.5678 23.8072C27.8293 25.1995 29.2628 26.767 30.6772 27.5416C30.9543 27.6891 31.0499 28.0303 30.897 28.2977C30.7823 28.4821 30.5912 28.5835 30.3905 28.5835Z" fill="black"/>
</svg>
