<svg width="49" height="45" viewBox="0 0 49 45" fill="none" xmlns="http://www.w3.org/2000/svg">
<g clip-path="url(#clip0_8_136)">
<path d="M8.5648 26.1674C8.5648 26.1674 10.3077 25.6817 10.4969 25.6124C9.97902 28.1895 9.36154 32.9075 9.36154 38.8547H5.3778H4.58105C4.58105 34.6421 5.82597 28.1003 8.5648 26.1674Z" fill="black"/>
<path d="M32.4673 39.6476H29.2803C21.5618 39.6476 18.9226 39.6476 18.9226 44.4053H10.9551C15.138 44.4053 15.7356 40.837 15.7356 38.8547C15.7356 37.5066 15.7356 32.521 15.7356 29.2005H18.0661C18.7134 29.6366 19.7691 30.1322 21.3128 30.1322C26.0435 30.1322 26.5415 23.7886 26.5415 23.7886L29.2803 24.5815C31.5211 25.2754 35.1065 25.8205 36.451 27.7533C37.7955 29.6862 40.4348 38.0617 40.4348 38.0617C40.4348 38.0617 40.375 38.3491 40.0165 38.6961C39.3093 39.4295 37.4171 40.4207 32.4673 39.6476Z" fill="black"/>
<path d="M27.6869 15.859C27.6869 17.3458 27.3383 18.1388 26.7109 19.8436C26.3822 19.6652 26.0934 19.6256 26.0934 19.6256C26.0934 19.6256 24.7489 17.4449 22.9064 17.4449C21.0639 17.4449 21.2631 19.0309 17.3292 18.2379C17.3292 18.2379 16.0145 18.109 15.1481 19.1994C14.7995 19.0903 14.4509 19.0309 14.1422 19.0309C13.3056 19.0309 12.7279 19.3579 12.3196 19.8436C11.6922 18.0793 12.5487 16.652 12.5487 16.652C12.5586 16.5628 12.5885 16.4538 12.6383 16.3249C13.1363 15.0264 15.7655 11.8943 19.7194 11.8943C24.0517 11.8943 23.4044 13.728 26.0934 11.8943C26.0934 11.8943 27.6869 13.6586 27.6869 15.859Z" fill="white"/>
<path d="M27.6668 21.4295C27.6668 22.9163 26.5414 23.7886 26.5414 23.7886C26.5414 23.7886 26.0435 30.1322 21.3128 30.1322C19.779 30.1322 18.7134 29.6366 18.066 29.2005H15.7356C15.7356 27.6443 15.7356 26.4549 15.7356 26.1674C15.7356 23.7886 17.329 24.4824 17.329 22.2027C17.329 20.478 16.2236 19.5562 15.1479 19.1994C16.0144 18.109 17.329 18.2379 17.329 18.2379C21.263 19.0308 21.0638 17.4449 22.9063 17.4449C24.7488 17.4449 26.0933 19.6256 26.0933 19.6256C26.0933 19.6256 26.3821 19.6751 26.7108 19.8436C27.149 20.0815 27.6668 20.5375 27.6668 21.4295Z" fill="white"/>
<path d="M15.7357 38.8546C15.7357 40.837 15.1381 44.4053 10.9552 44.4053C6.77224 44.4053 5.37793 42.0264 5.37793 38.8546H9.36167C9.36167 32.9075 9.97915 28.1894 10.497 25.6123C10.5468 25.3546 10.5966 25.1266 10.6365 24.9185C10.756 24.4229 10.8556 24.0363 10.9452 23.7885C11.2838 22.8271 11.3934 20.9339 12.3096 19.8436C12.718 19.348 13.2956 19.0308 14.1322 19.0308C14.431 19.0308 14.7895 19.0903 15.1381 19.1993C16.2137 19.5562 17.3192 20.4879 17.3192 22.2026C17.3192 24.4824 15.7257 23.7885 15.7257 26.1674C15.7257 26.4548 15.7257 27.6443 15.7257 29.2004C15.7357 32.5209 15.7357 37.5066 15.7357 38.8546Z" fill="white"/>
<path d="M48.4023 4.75774V7.92955C48.4023 8.36567 48.0438 8.7225 47.6056 8.7225H46.8089C46.3706 8.7225 46.0121 9.07933 46.0121 9.51545V10.3084C46.0121 10.7445 45.6536 11.1014 45.2154 11.1014H30.8739C30.4357 11.1014 30.0771 10.7445 30.0771 10.3084V2.37889C30.0771 1.94277 30.4357 1.58594 30.8739 1.58594H45.2154C45.6536 1.58594 46.0121 1.94277 46.0121 2.37889V3.17184C46.0121 3.60796 46.3706 3.96479 46.8089 3.96479H47.6056C48.0438 3.96479 48.4023 4.32162 48.4023 4.75774Z" fill="black"/>
<path d="M48.4024 45H0.597561C0.268902 45 0 44.7324 0 44.4053C0 44.0782 0.268902 43.8106 0.597561 43.8106H48.4024C48.7311 43.8106 49 44.0782 49 44.4053C49 44.7324 48.7311 45 48.4024 45Z" fill="black"/>
<path d="M26.711 20.4384C26.6412 20.4384 26.5715 20.4285 26.5018 20.3987C26.1931 20.2897 26.0337 19.9428 26.1433 19.6355C26.203 19.4769 26.2528 19.3283 26.3126 19.1895C26.8305 17.8018 27.0894 17.0981 27.0894 15.8492C27.0894 14.4813 26.3823 13.2721 25.9541 12.6774C24.5797 13.51 23.9622 13.3613 22.9862 13.0144C22.3388 12.7864 21.4624 12.4791 19.7195 12.4791C15.9748 12.4791 13.5945 15.4924 13.1961 16.5331C13.0766 16.8404 12.728 16.989 12.4193 16.8701C12.1106 16.7512 11.9612 16.4042 12.0807 16.097C12.728 14.4318 15.6362 11.2996 19.7195 11.2996C21.6715 11.2996 22.6973 11.6664 23.3845 11.9042C24.2112 12.1917 24.4601 12.2809 25.7549 11.3987C26.0038 11.2302 26.3325 11.2699 26.5417 11.4879C26.6114 11.5672 28.2845 13.4505 28.2845 15.8492C28.2845 17.3062 27.9658 18.1686 27.428 19.5959C27.3782 19.7346 27.3185 19.8833 27.2687 20.0419C27.179 20.2897 26.95 20.4384 26.711 20.4384Z" fill="black"/>
<path d="M21.3131 30.7269C19.9785 30.7269 18.7436 30.3701 17.7377 29.6861C17.4688 29.4978 17.3891 29.1311 17.5783 28.8634C17.7676 28.5958 18.1361 28.5165 18.405 28.7049C19.2216 29.2599 20.1977 29.5375 21.3131 29.5375C23.0062 29.5375 24.3009 28.5958 25.1475 26.7423C25.8147 25.2654 25.9442 23.7588 25.9442 23.739C25.9542 23.5705 26.0438 23.4218 26.1733 23.3128C26.2031 23.2831 27.0696 22.5892 27.0696 21.4295C27.0696 20.9438 26.8605 20.5969 26.4322 20.369C26.2031 20.25 25.994 20.2104 25.994 20.2104C25.8247 20.1806 25.6753 20.0815 25.5857 19.9328C25.5757 19.913 24.3905 18.0397 22.9066 18.0397C22.3788 18.0397 22.0899 18.1983 21.6816 18.4163C20.8948 18.8326 19.9188 19.3579 17.2497 18.8326C17.1003 18.8227 16.2139 18.8227 15.6164 19.576C15.4072 19.8337 15.0387 19.8734 14.7798 19.6751C14.5208 19.467 14.481 19.1002 14.6802 18.8425C15.7359 17.5143 17.3194 17.6531 17.3891 17.663C17.409 17.663 17.429 17.6729 17.4489 17.6729C19.7196 18.1289 20.4267 17.7522 21.1139 17.3855C21.5621 17.1377 22.08 16.8701 22.9066 16.8701C24.7092 16.8701 26.0438 18.5253 26.4621 19.13C26.6015 19.1696 26.7907 19.239 26.9899 19.348C27.8066 19.7742 28.2647 20.5275 28.2647 21.4593C28.2647 22.8073 27.4879 23.7291 27.1094 24.1057C27.0497 24.6311 26.8405 25.9295 26.243 27.2379C25.2072 29.5077 23.5042 30.7269 21.3131 30.7269Z" fill="black"/>
<path d="M35.7041 40.5198C34.7679 40.5198 33.6624 40.4306 32.3777 40.2324C32.1387 40.1927 31.9494 40.0242 31.8897 39.7863L31.0929 36.6145C31.0133 36.2973 31.2125 35.9702 31.5312 35.891C31.8499 35.8117 32.1785 36 32.2582 36.3271L32.9553 39.1123C34.7679 39.3601 38.2736 39.6376 39.5982 38.2797C39.6978 38.1806 39.7675 38.0914 39.8074 38.022C39.3891 36.7136 37.1383 29.7555 35.973 28.0804C35.0269 26.7224 32.6068 26.0782 30.6647 25.5727C30.1169 25.424 29.5891 25.2852 29.121 25.1465C28.8023 25.0473 28.633 24.7103 28.7326 24.4031C28.8322 24.0859 29.1708 23.9174 29.4795 24.0165C29.9277 24.1553 30.4356 24.294 30.9734 24.4328C33.2242 25.0275 35.7639 25.7015 36.959 27.4163C38.3433 29.3987 40.9128 37.5363 41.0224 37.8832C41.0523 37.9824 41.0622 38.0914 41.0324 38.1905C41.0124 38.2698 40.9128 38.6663 40.4547 39.1123C39.7675 39.8161 38.4131 40.5198 35.7041 40.5198Z" fill="black"/>
<path d="M38.0444 45H20.2471C19.7093 45 19.2013 44.7621 18.8528 44.3557C18.5042 43.9494 18.3548 43.4042 18.4444 42.8789C18.7532 41.0154 19.7391 39.9747 21.6513 39.489C23.3643 39.0529 25.8442 39.0529 29.2902 39.0529C29.6188 39.0529 29.8877 39.3205 29.8877 39.6476C29.8877 39.9747 29.6188 40.2423 29.2902 40.2423C22.1493 40.2423 20.0778 40.3613 19.6296 43.0771C19.5997 43.2555 19.6495 43.4439 19.769 43.5925C19.8885 43.7313 20.0678 43.8205 20.257 43.8205H38.0444C39.5483 43.8205 39.8371 42.9185 39.8371 41.2434C39.8371 40.2423 39.4487 38.8844 39.4487 38.8646C39.3591 38.5474 39.5383 38.2203 39.857 38.1311C40.1757 38.0419 40.5044 38.2203 40.594 38.5375C40.6139 38.5969 41.0322 40.0738 41.0322 41.2335C41.0322 41.8183 41.0322 42.7005 40.6837 43.4736C40.365 44.1674 39.6479 45 38.0444 45Z" fill="black"/>
<path d="M10.9554 45C7.12108 45 4.99974 43.0871 4.80055 39.4494H4.58145C4.25279 39.4494 3.98389 39.1818 3.98389 38.8547C3.98389 34.9197 5.12921 27.8624 8.21661 25.6818C8.48551 25.4934 8.85401 25.5529 9.0532 25.8205C9.24242 26.0882 9.18267 26.4549 8.91377 26.6531C7.80828 27.4362 6.8223 29.2699 6.12515 31.8172C5.58734 33.7996 5.24872 36.1686 5.18897 38.26H8.76438C8.80421 31.6983 9.58104 27.1686 9.9097 25.4934C9.9595 25.2357 10.0093 25.0078 10.0591 24.7798C10.1886 24.2346 10.2981 23.8382 10.3877 23.5805C10.4774 23.3227 10.5571 22.9461 10.6467 22.5496C10.8558 21.5584 11.1247 20.3194 11.8518 19.4571C12.4195 18.7732 13.1863 18.4263 14.1325 18.4263C14.5109 18.4263 14.9193 18.4957 15.3176 18.6245C16.951 19.1697 17.917 20.4979 17.917 22.1928C17.917 23.5606 17.3892 24.1058 16.9609 24.5419C16.5924 24.9186 16.3235 25.1961 16.3235 26.1575V38.8448C16.3235 39.8855 16.1642 41.402 15.4172 42.6608C14.5308 44.1972 12.9871 45 10.9554 45ZM5.99568 39.4494C6.07535 40.728 6.43389 41.7291 7.05137 42.423C7.85807 43.3448 9.17271 43.8106 10.9554 43.8106C12.5788 43.8106 13.7042 43.2456 14.4014 42.076C15.0089 41.0353 15.1384 39.7467 15.1384 38.8547V26.1675C15.1384 24.7203 15.6762 24.1653 16.1144 23.7192C16.4729 23.3525 16.7319 23.0849 16.7319 22.2027C16.7319 20.5276 15.4869 19.9428 14.9591 19.7644C14.6902 19.6752 14.3914 19.6256 14.1424 19.6256C13.5548 19.6256 13.1166 19.8238 12.778 20.2302C12.2402 20.8745 12.0111 21.9053 11.8219 22.8172C11.7323 23.2534 11.6426 23.6597 11.5231 23.9968C11.4434 24.2148 11.3438 24.5716 11.2343 25.0573C11.1845 25.2556 11.1447 25.4835 11.0949 25.7313C10.826 27.0496 9.9595 31.8866 9.9595 38.8547C9.9595 39.1818 9.6906 39.4494 9.36194 39.4494H5.99568Z" fill="black"/>
<path d="M45.2157 11.6961H30.8743C30.1074 11.6961 29.48 11.0716 29.48 10.3084V2.37888C29.48 1.61566 30.1074 0.991211 30.8743 0.991211H45.2157C45.9826 0.991211 46.6101 1.61566 46.6101 2.37888V3.17183C46.6101 3.28086 46.6997 3.37007 46.8092 3.37007H47.606C48.3729 3.37007 49.0003 3.99452 49.0003 4.75773V7.92954C49.0003 8.69275 48.3729 9.3172 47.606 9.3172H46.8092C46.6997 9.3172 46.6101 9.40641 46.6101 9.51544V10.3084C46.6101 11.0716 45.9826 11.6961 45.2157 11.6961ZM30.8743 2.18064C30.7647 2.18064 30.6751 2.26985 30.6751 2.37888V10.3084C30.6751 10.4174 30.7647 10.5066 30.8743 10.5066H45.2157C45.3253 10.5066 45.4149 10.4174 45.4149 10.3084V9.51544C45.4149 8.75222 46.0424 8.12778 46.8092 8.12778H47.606C47.7155 8.12778 47.8052 8.03857 47.8052 7.92954V4.75773C47.8052 4.6487 47.7155 4.55949 47.606 4.55949H46.8092C46.0424 4.55949 45.4149 3.93504 45.4149 3.17183V2.37888C45.4149 2.26985 45.3253 2.18064 45.2157 2.18064H30.8743Z" fill="white"/>
<path d="M34.8575 3.96478H32.4673V8.72249H34.8575V3.96478Z" fill="white"/>
<g clip-path="url(#clip1_8_136)">
<path d="M38.5295 39.5455C38.4463 39.3157 38.6128 39.0786 38.9087 39.0139C39.2046 38.9493 39.5097 39.0786 39.593 39.3085C39.6114 39.3516 39.9998 40.422 39.9998 41.2625C39.9998 41.6864 39.9998 42.3257 39.6762 42.8861C39.3803 43.3889 38.7145 43.9924 37.2257 43.9924H20.7013C20.2019 43.9924 19.7303 43.82 19.4067 43.5254C19.083 43.2309 18.9443 42.8358 19.0276 42.455C19.3142 41.1045 20.2297 40.3501 22.0051 39.9981C23.5956 39.682 25.8981 39.682 29.0976 39.682" fill="white"/>
</g>
</g>
<defs>
<clipPath id="clip0_8_136">
<rect width="49" height="45" fill="white"/>
</clipPath>
<clipPath id="clip1_8_136">
<rect width="21" height="5" fill="white" transform="translate(19 39)"/>
</clipPath>
</defs>
</svg>
