<svg width="48" height="49" viewBox="0 0 48 49" fill="none" xmlns="http://www.w3.org/2000/svg">
<g clip-path="url(#clip0_9_180)">
<path d="M32.1975 32.4675C40.9249 32.4675 48 25.3331 48 16.5325C48 7.73186 40.9249 0.597534 32.1975 0.597534C23.47 0.597534 16.395 7.73186 16.395 16.5325C16.395 25.3331 23.47 32.4675 32.1975 32.4675Z" fill="white"/>
<path d="M45.9259 35.4553C46.1333 36.1126 46.4198 37.1882 46.4198 38.0447C46.4198 39.3892 44.9877 41.2317 42.4691 41.2317C40.9778 41.2317 39.0124 40.425 36.9383 39.19C31.3877 35.9035 25.0864 29.6091 25.0864 27.687C25.0864 26.4421 25.3333 24.5 27.4568 24.5C30.7161 24.5 29.7778 26.8902 32.2469 28.5833C34.7161 30.2764 42.1432 34.0909 43.2593 34.061C44.1086 34.0411 44.7803 33.4833 45.1951 33.0352L45.9259 35.4553Z" fill="white"/>
<path d="M42.2918 25.2469L43.2597 27.667L43.2696 27.687L45.6399 32.4675C45.6399 32.4675 45.4819 32.7264 45.2054 33.0351C44.7905 33.4833 44.1189 34.051 43.2696 34.061C42.1436 34.0809 34.7263 30.2764 32.2572 28.5833C29.7881 26.8902 30.7263 24.5 27.4671 24.5C25.3436 24.5 25.0967 26.4421 25.0967 27.687C25.0967 29.6091 31.3979 35.9134 36.9486 39.19V42.8252V48.4024H13.235V45.5341C13.7584 45.1457 14.0251 44.5083 14.0251 43.6219C14.0251 43.1339 13.7189 42.4467 13.235 41.6898V38.0447V30.0772L9.28437 34.061C8.94856 33.9016 8.63251 33.7223 8.33622 33.5331C6.04486 32.099 4.52387 29.878 3.70412 28.404C3.20042 27.5077 2.96338 26.8902 2.96338 26.8902C2.96338 26.8902 7.1214 20.7752 12.8498 16.9906C14.5091 15.8951 16.7807 15.7258 18.7658 15.7358L21.9856 15.4768C22.7757 16.911 24.4251 18.9227 27.4572 18.9227C28.1881 18.9227 28.8202 18.7933 29.3733 18.5841C30.2819 18.3252 30.9535 17.887 31.4572 17.3691C31.9905 16.8313 32.3263 16.2038 32.5436 15.5963C32.5436 15.5963 35.8029 16.1441 38.2621 17.9965C38.6375 18.2754 38.993 18.5742 39.3091 18.9227C40.7017 20.4067 41.7881 23.0559 42.4696 25.0577C42.4103 25.1274 42.351 25.1872 42.2918 25.2469Z" fill="black"/>
<path d="M31.4573 17.3691C30.9536 17.887 30.282 18.3252 29.3734 18.5842C28.8203 18.8033 28.1882 18.9228 27.4573 18.9228C24.4351 18.9228 22.7758 16.911 21.9857 15.4769C21.5413 14.6702 21.3635 14.0527 21.3635 14.0527C21.3635 14.0527 19.9314 13.5846 19.7635 12.1604C19.5561 10.3876 21.1265 10.1685 21.1265 10.1685C20.6326 8.37586 21.8672 6.04537 22.7067 5.38805C23.4968 5.95573 27.8721 5.04943 29.0277 3.79456C29.0277 3.79456 32.1882 5.41793 32.1882 8.57504C32.1882 8.57504 33.7684 8.57504 33.7684 10.1685C33.7684 11.9313 32.9783 12.5588 32.9783 12.5588C32.9783 12.6982 32.9586 12.9273 32.9289 13.1962C32.9289 13.1962 32.9981 14.3515 32.5339 15.6063C32.3265 16.2039 31.9808 16.8313 31.4573 17.3691Z" fill="white"/>
<path d="M31.4074 0.597534C32.2963 2.29062 33.8766 4.61115 32.1976 8.56501C32.1976 5.4079 29.0371 3.78453 29.0371 3.78453C27.8815 5.0394 23.5062 5.9457 22.7161 5.37802C21.8766 6.03534 20.642 8.36583 21.1358 10.1585C17.2445 5.37802 21.926 2.98778 21.926 2.98778C23.2494 1.22497 26.5679 1.39428 27.4568 1.39428C28.3457 1.39428 30.9827 1.39428 31.4074 0.597534Z" fill="#EBEDF0"/>
<path d="M14.0249 43.6219C14.0249 44.5083 13.7582 45.1457 13.2347 45.5341C12.8199 45.8528 12.2273 46.0122 11.5064 46.0122C9.43228 46.0122 0.592773 36.7002 0.592773 32.4675C0.592773 31.1728 1.97549 30.0772 1.97549 30.0772L3.70388 28.4041C4.51376 29.878 6.04463 32.099 8.33598 33.5331L7.70388 35.2063C7.70388 35.2063 11.536 38.9809 13.2347 41.6799C13.7187 42.4567 14.0249 43.1339 14.0249 43.6219Z" fill="white"/>
<path d="M21.1361 10.7561C20.9583 10.7561 20.7904 10.6764 20.6818 10.537C19.309 8.85386 18.7756 7.23049 19.0917 5.71667C19.4867 3.83435 21.0769 2.78862 21.5411 2.51972C22.983 0.746951 26.0744 0.786789 27.2497 0.796748C27.3287 0.796748 27.3979 0.796748 27.4571 0.796748C30.3905 0.796748 30.8349 0.388415 30.8843 0.30874C30.983 0.119512 31.1905 0 31.4077 0C31.625 0 31.8226 0.129472 31.9312 0.318699C32.0003 0.448171 32.0695 0.577642 32.1485 0.717073C33.0472 2.38028 34.4003 4.89004 32.7411 8.79411C32.6324 9.05305 32.3559 9.20244 32.0793 9.14268C31.8028 9.08293 31.6053 8.8439 31.6053 8.55508C31.6053 6.38394 29.8571 4.99959 29.1065 4.51159C28.1485 5.25854 26.5682 5.68679 25.8769 5.84614C25.2151 6.00549 23.7633 6.28435 22.8546 6.06524C22.1633 6.84207 21.3435 8.66463 21.709 9.99919C21.788 10.2681 21.6596 10.5569 21.4127 10.6864C21.3238 10.7362 21.225 10.7561 21.1361 10.7561ZM26.8645 1.99187C25.6497 1.99187 23.3386 2.09146 22.4003 3.3563C22.3411 3.42602 22.2719 3.48577 22.1929 3.52561C22.183 3.52561 20.5732 4.38211 20.2472 5.97561C20.109 6.65285 20.2176 7.38984 20.5633 8.16667C20.8695 6.77236 21.6497 5.46768 22.3509 4.90996C22.5584 4.75061 22.8349 4.74065 23.0522 4.89004C23.2497 4.98963 24.2077 5.01951 25.6892 4.67094C27.0423 4.34228 28.188 3.84431 28.6028 3.38618C28.7806 3.18699 29.067 3.1372 29.304 3.25671C29.4127 3.31646 31.309 4.3124 32.2571 6.27439C32.583 4.20285 31.8719 2.73882 31.2201 1.51382C30.509 1.85244 29.3139 2.00183 27.4571 2.00183C27.3979 2.00183 27.3188 2.00183 27.2398 2.00183C27.1312 1.99187 27.0028 1.99187 26.8645 1.99187Z" fill="black"/>
<path d="M27.4568 19.5203C24.0494 19.5203 22.242 17.1699 21.4717 15.7656C21.1754 15.2278 20.9877 14.7697 20.8889 14.4908C20.3754 14.2418 19.3383 13.5746 19.1803 12.2201C19.042 11.015 19.5655 10.3577 20.0198 10.0091C20.4939 9.65058 20.9976 9.57091 21.0568 9.57091C21.3828 9.53107 21.6791 9.76014 21.7284 10.0788C21.7778 10.3975 21.5408 10.7063 21.2247 10.7561C20.9976 10.7959 20.2371 10.9951 20.3655 12.0906C20.484 13.1264 21.5507 13.4849 21.5605 13.4849C21.7482 13.5447 21.8865 13.6941 21.9457 13.8833C21.9457 13.8833 22.1136 14.4609 22.5186 15.188C23.3087 16.6221 24.8099 18.3351 27.4667 18.3351C28.0791 18.3351 28.6519 18.2355 29.1655 18.0364C29.4717 17.9168 29.8173 18.0662 29.9359 18.375C30.0544 18.6837 29.9062 19.0323 29.6001 19.1518C28.9284 19.3908 28.2173 19.5203 27.4568 19.5203Z" fill="black"/>
<path d="M32.9385 13.7838C32.9188 13.7838 32.8892 13.7838 32.8694 13.7838C32.5435 13.744 32.3163 13.4452 32.3459 13.1165C32.3855 12.7879 32.3855 12.6086 32.3855 12.5488C32.3855 12.3596 32.4546 12.2003 32.6027 12.0807C32.662 12.021 33.1756 11.5031 33.1756 10.1586C33.1756 9.25229 32.4151 9.16265 32.178 9.16265C31.8521 9.16265 31.5854 8.89375 31.5854 8.56509C31.5854 8.23643 31.8521 7.96753 32.178 7.96753C33.0472 7.96753 34.3509 8.55513 34.3509 10.1586C34.3509 11.6326 33.8571 12.4393 33.5509 12.7978C33.541 12.9273 33.5311 13.0866 33.5114 13.2559C33.4916 13.5647 33.2348 13.7838 32.9385 13.7838Z" fill="black"/>
<path d="M13.2346 38.6423C12.9086 38.6423 12.642 38.3734 12.642 38.0447V31.5213L9.69877 34.4892C9.52099 34.6685 9.25433 34.7183 9.02717 34.6087C8.67161 34.4394 8.33581 34.2502 8.01976 34.051C5.52099 32.4874 3.92099 30.0274 3.19013 28.7028C2.66667 27.7866 2.41976 27.1392 2.40988 27.1093C2.34075 26.9301 2.3605 26.7209 2.47902 26.5616C2.64692 26.3126 6.76544 20.3071 12.5235 16.5026C14.3704 15.2876 16.8296 15.1382 18.7654 15.1481C19.0914 15.1481 19.358 15.417 19.358 15.7457C19.358 16.0744 19.0914 16.3433 18.7654 16.3433C16.9877 16.3333 14.7556 16.4628 13.1753 17.5085C8.28643 20.7353 4.50371 25.7748 3.64445 26.9799C3.75309 27.2288 3.95062 27.6372 4.22717 28.1252C4.90865 29.3502 6.38025 31.6209 8.65186 33.0451C8.81976 33.1547 8.99754 33.2543 9.17532 33.3538L12.8198 29.6788C12.9877 29.5095 13.2445 29.4597 13.4617 29.5494C13.679 29.639 13.8272 29.8581 13.8272 30.0971V38.0646C13.8272 38.3734 13.5605 38.6423 13.2346 38.6423Z" fill="black"/>
<path d="M11.5062 46.6097C9.91605 46.6097 6.55802 43.2235 4.82963 41.2217C3.37778 39.5385 0 35.3257 0 32.4674C0 31.7902 0.276543 31.103 0.819753 30.4158C1.20494 29.9278 1.59012 29.619 1.60988 29.6091C1.86667 29.3999 2.24198 29.4497 2.43951 29.7087C2.64691 29.9676 2.59753 30.3461 2.34074 30.5452C2.02469 30.8042 1.18519 31.6607 1.18519 32.4674C1.18519 34.1406 2.92346 37.1981 5.71852 40.4349C8.49383 43.6418 10.8938 45.4146 11.5062 45.4146C12.1086 45.4146 12.5728 45.295 12.879 45.056C13.2543 44.7772 13.4321 44.3091 13.4321 43.6219C13.4321 43.4725 13.363 43.0044 12.7309 42.0085C11.0914 39.3991 7.3284 35.6743 7.28889 35.6345C7.12099 35.4652 7.06173 35.2162 7.15062 34.9971L7.78272 33.3239C7.90124 33.0152 8.23704 32.8558 8.54321 32.9753C8.84938 33.0948 9.00741 33.4335 8.88889 33.7422L8.39506 35.0568C9.31358 35.983 12.2667 39.0306 13.7383 41.3611C14.3309 42.3072 14.6173 43.0442 14.6173 43.6219C14.6173 44.6975 14.2716 45.5042 13.5901 46.0121C13.0667 46.4105 12.3654 46.6097 11.5062 46.6097Z" fill="black"/>
<path d="M42.469 41.8293C40.9578 41.8293 39.0023 41.1122 36.6319 39.708C34.0344 38.1742 31.0023 35.7939 28.5134 33.3539C25.0171 29.9279 24.4937 28.3344 24.4937 27.687C24.4937 26.721 24.6418 25.9541 24.948 25.3565C25.4319 24.4104 26.3011 23.9025 27.4566 23.9025C29.7381 23.9025 30.3406 25.008 30.9332 26.0836C31.3085 26.7708 31.6936 27.4779 32.5825 28.0854C35.1208 29.8283 42.3011 33.4435 43.2492 33.4634C43.7331 33.4535 44.2467 33.1746 44.7603 32.6269C44.8294 32.5472 44.8887 32.4775 44.9381 32.4077L42.7257 27.946C42.5776 27.6472 42.6961 27.2886 42.9924 27.1492C43.2887 26.9998 43.6443 27.1193 43.7825 27.4181L46.1529 32.1986C46.2418 32.3878 46.2319 32.6069 46.1233 32.7862C46.1035 32.8161 45.9257 33.0949 45.6294 33.4336L45.6196 33.4435C44.8788 34.2303 44.0887 34.6386 43.269 34.6586C43.2591 34.6586 43.2591 34.6586 43.2492 34.6586C42.4393 34.6586 39.9504 33.4834 37.985 32.4974C35.5356 31.2624 33.0862 29.888 31.9011 29.0714C30.7751 28.3045 30.2813 27.3882 29.8862 26.6612C29.0369 25.0976 28.4739 25.0976 27.4566 25.0976C26.627 25.0976 25.6788 25.3964 25.6788 27.687C25.6788 28.2746 26.8245 30.0275 29.343 32.4974C31.7628 34.8777 34.7159 37.1783 37.2344 38.6722C39.3776 39.9569 41.185 40.6342 42.469 40.6342C44.6319 40.6342 45.827 39.1004 45.827 38.0447C45.827 37.1982 45.501 36.0827 45.3628 35.6346C45.264 35.3159 45.4319 34.9872 45.748 34.8876C46.064 34.788 46.3899 34.9573 46.4887 35.276C46.6862 35.8935 47.0023 37.0687 47.0023 38.0447C47.0122 39.6382 45.4319 41.8293 42.469 41.8293Z" fill="black"/>
<path d="M13.2347 49.0001C12.9088 49.0001 12.6421 48.7312 12.6421 48.4025V45.5342C12.6421 45.2055 12.9088 44.9366 13.2347 44.9366C13.5606 44.9366 13.8273 45.2055 13.8273 45.5342V48.4025C13.8273 48.7312 13.5606 49.0001 13.2347 49.0001Z" fill="black"/>
<path d="M36.9383 49C36.6124 49 36.3457 48.7311 36.3457 48.4025V42.8252C36.3457 42.4966 36.6124 42.2277 36.9383 42.2277C37.2642 42.2277 37.5309 42.4966 37.5309 42.8252V48.4025C37.5309 48.7311 37.2642 49 36.9383 49Z" fill="black"/>
</g>
<defs>
<clipPath id="clip0_9_180">
<rect width="48" height="49" fill="white"/>
</clipPath>
</defs>
</svg>
