<svg width="40" height="42" viewBox="0 0 40 42" fill="none" xmlns="http://www.w3.org/2000/svg">
<g clip-path="url(#clip0_9_74)">
<path d="M26.3831 27.8293C33.9036 27.8293 40.0002 21.7141 40.0002 14.1707C40.0002 6.62734 33.9036 0.512207 26.3831 0.512207C18.8627 0.512207 12.7661 6.62734 12.7661 14.1707C12.7661 21.7141 18.8627 27.8293 26.3831 27.8293Z" fill="#FBFCFF"/>
<path d="M17.5829 14.1708C17.5829 14.1708 20.0935 11.9939 22.9105 9.8854C25.5488 7.90491 28.4595 5.97565 29.7871 5.97565C32.5276 5.97565 33.1914 8.32321 33.1914 9.39028C33.1914 10.4574 31.251 10.3635 30.468 10.7561C29.0893 11.4561 27.3956 13.3683 25.702 15.4086C23.5318 18.0208 21.3616 20.8208 19.8722 21.4269C18.4595 21.9988 16.0765 21.3159 14.6382 20.7952C13.9233 20.5391 13.4467 20.3171 13.4467 20.3171L11.4978 19.583H11.4893C11.6084 17.3634 12.4595 14.6403 14.2297 13.2061C15.2424 13.6927 16.3744 14.0598 17.5829 14.1708Z" fill="white"/>
<path d="M14.2299 13.1976C12.4682 14.6317 11.6086 17.3549 11.4895 19.5744C11.4044 21.1452 11.7022 22.4598 12.3065 22.8952C12.3235 22.9037 12.3235 22.9037 12.332 22.9122C12.4597 22.9976 12.6044 23.0488 12.7576 23.0488C13.3533 23.0488 14.1193 22.3659 14.1193 22.3659L14.6299 20.7952C16.0682 21.3159 18.4512 21.9988 19.8639 21.4269C21.3448 20.8293 23.5235 18.0293 25.6937 15.4086L27.7363 16.2195C30.4597 17.0732 31.3533 18.9512 32.5022 28.5122C32.3065 28.7939 32.0767 29.0586 31.8214 29.3147C30.8001 30.3049 29.149 31.0647 25.6852 31.2098C25.2937 31.2269 24.8767 31.2354 24.4341 31.2354L23.7533 31.2013C23.6597 33.8732 23.6597 37.2281 23.6597 41.4878H0.510742C0.510742 41.4878 0.510742 31.2439 0.510742 21C0.510742 10.7561 4.8767 8.70735 6.6384 8.70735L9.2001 8.28052C9.24266 8.90369 9.34479 9.32198 9.36181 9.39027C9.36181 9.39881 9.36181 9.39881 9.36181 9.39881C9.36181 9.39881 11.3022 11.7976 14.2299 13.1976Z" fill="black"/>
<path d="M14.1275 22.3659C14.1275 22.3659 13.3615 23.0488 12.7658 23.0488C12.6126 23.0488 12.4679 22.9976 12.3402 22.9122C12.3317 22.9037 12.3232 22.9037 12.3147 22.8951C11.7105 22.4683 11.4126 21.1451 11.4977 19.5744H11.5062L13.4466 20.3171C13.4466 20.3171 13.9232 20.539 14.6381 20.7951L14.1275 22.3659Z" fill="#EBEDF0"/>
<path d="M20.2554 8.0244C16.3661 8.0244 15.4895 5.97562 15.4895 5.97562C15.149 6.9744 12.7661 9.39026 12.7661 9.39026C12.7661 9.39026 12.4001 8.0244 11.4044 8.0244C9.82989 8.0244 9.38734 9.30489 9.36181 9.38172C9.34479 9.31343 9.24266 8.89513 9.20011 8.27196C9.10649 7.01709 9.23415 4.93416 10.7235 3.26952C12.2724 1.54513 14.1278 1.87806 14.1278 1.87806C14.1278 1.87806 15.5746 0.512207 17.898 0.512207C22.7831 0.512207 22.6384 5.2927 25.7022 5.2927C25.7022 5.2927 24.9193 6.66709 23.081 7.46099C22.3235 7.79391 21.3959 8.0244 20.2554 8.0244Z" fill="#FBFCFF"/>
<path d="M12.7661 9.39028C12.7661 9.39028 15.1491 6.97443 15.4895 5.97565C15.4895 5.97565 16.3661 8.02443 20.2554 8.02443C21.3959 8.02443 22.3235 7.79394 23.081 7.46101C23.081 7.46101 23.5491 9.06589 22.9108 9.87687C20.1022 11.9854 17.5831 14.1622 17.5831 14.1622C16.3746 14.0513 15.2427 13.6842 14.2299 13.1891C11.3022 11.7976 9.36182 9.39028 9.36182 9.39028C9.36182 9.39028 9.36182 9.39028 9.36182 9.38174C9.38735 9.30492 9.8299 8.02443 11.4044 8.02443C12.4001 8.02443 12.7661 9.39028 12.7661 9.39028Z" fill="white"/>
<path d="M18.5532 22.1524C17.217 22.1524 15.6766 21.717 14.4595 21.2817C13.7361 21.017 13.251 20.7951 13.2255 20.7865C12.9702 20.667 12.8595 20.3682 12.9702 20.1121C13.0893 19.8561 13.3872 19.7451 13.6425 19.8561C13.651 19.8561 14.1106 20.0695 14.8 20.317C16.9957 21.1109 18.7234 21.3329 19.668 20.9487C20.8595 20.4707 22.7149 18.2085 24.5191 16.0146C24.7744 15.6987 25.0383 15.3914 25.2936 15.0756C26.8851 13.1634 28.7149 11.0634 30.2212 10.2951C30.5276 10.1414 30.9191 10.0561 31.3361 9.97069C32.0595 9.81703 32.6638 9.67191 32.6638 9.38166C32.6638 9.35605 32.6297 6.47922 29.7702 6.47922C29.2085 6.47922 27.617 6.97435 23.2 10.2865C20.434 12.3609 17.9319 14.5292 17.9063 14.5548C17.8042 14.6487 17.668 14.6914 17.5234 14.6743C16.3574 14.5719 15.1659 14.2304 13.9914 13.6585C10.9957 12.2158 9.02975 9.80849 8.94464 9.70605C8.76592 9.4841 8.79996 9.15971 9.02124 8.98898C9.24251 8.80971 9.56592 8.84386 9.73613 9.06581C9.75315 9.09142 11.6425 11.3963 14.4255 12.7365C15.4212 13.2231 16.417 13.5219 17.3957 13.6329C18.0085 13.1121 20.1957 11.2512 22.5787 9.46703C26.1787 6.76947 28.5276 5.45483 29.7617 5.45483C32.6297 5.45483 33.6766 7.80239 33.6766 9.38166C33.6766 10.5256 32.4425 10.7817 31.5319 10.9695C31.2 11.0378 30.851 11.1061 30.6638 11.2C29.3276 11.8743 27.5914 13.889 26.0595 15.7243C25.8042 16.0317 25.5489 16.3475 25.2851 16.6548C23.3191 19.0451 21.4553 21.3073 20.0255 21.8878C19.6255 22.0756 19.1063 22.1524 18.5532 22.1524Z" fill="black"/>
<path d="M12.7661 9.90244C12.7235 9.90244 12.681 9.8939 12.6384 9.88537C12.4597 9.84268 12.3235 9.69756 12.2725 9.52683C12.2725 9.51829 11.9831 8.53659 11.4044 8.53659C10.264 8.53659 9.90652 9.38171 9.84695 9.55244C9.77035 9.75732 9.57461 9.90244 9.35333 9.8939C9.13205 9.88537 8.94482 9.74024 8.87673 9.53537C8.84269 9.41585 8.73205 8.95488 8.6895 8.31463C8.59588 7.10244 8.6895 4.78049 10.3406 2.93659C11.7278 1.39146 13.3448 1.31463 13.9576 1.35732C14.4512 0.956098 15.864 0 17.898 0C20.8682 0 22.1704 1.66463 23.2087 3.00488C23.9831 3.99512 24.5959 4.78049 25.7023 4.78049C25.881 4.78049 26.0512 4.87439 26.1448 5.03659C26.2384 5.19878 26.2384 5.38659 26.1448 5.54878C26.1108 5.60854 25.2512 7.07683 23.2852 7.93902C22.3661 8.34024 21.3448 8.54512 20.2555 8.54512C17.5916 8.54512 16.2044 7.62317 15.5491 6.93171C14.7831 8.07561 13.3278 9.56098 13.1321 9.75732C13.0299 9.85122 12.9023 9.90244 12.7661 9.90244ZM11.4044 7.5122C12.1193 7.5122 12.6129 7.98171 12.9278 8.48537C13.7874 7.56341 14.8257 6.34268 15.0129 5.81341C15.081 5.61707 15.2682 5.47195 15.4725 5.46341C15.6852 5.45488 15.881 5.57439 15.9576 5.77073C15.9916 5.83902 16.8001 7.5122 20.2555 7.5122C21.2001 7.5122 22.0852 7.34146 22.8767 6.99146C23.7618 6.60732 24.3831 6.07805 24.7661 5.65976C23.7278 5.32683 23.0555 4.46463 22.4086 3.62805C21.4129 2.34756 20.3746 1.02439 17.9065 1.02439C15.8044 1.02439 14.4938 2.23659 14.4852 2.25366C14.3661 2.36463 14.2044 2.41585 14.0427 2.38171C14.0427 2.38171 13.6342 2.31341 13.0725 2.44146C12.3235 2.60366 11.6682 2.99634 11.1065 3.61951C9.77886 5.10488 9.64269 6.99146 9.70226 8.08415C10.0852 7.75976 10.6384 7.5122 11.4044 7.5122Z" fill="black"/>
<path d="M9.36171 9.90244C9.08086 9.90244 8.85107 9.67195 8.85107 9.39025C8.85107 9.10854 9.08086 8.87805 9.36171 8.87805C9.64256 8.87805 9.87235 9.1 9.87235 9.39025V9.39878C9.87235 9.67195 9.64256 9.90244 9.36171 9.90244Z" fill="black"/>
<path d="M22.9105 10.3976C22.7998 10.3976 22.6892 10.3634 22.5956 10.2866C22.3743 10.1073 22.3403 9.79149 22.5105 9.56954C22.902 9.07441 22.6977 7.96466 22.5956 7.61466C22.519 7.34149 22.6722 7.05978 22.9445 6.98295C23.2169 6.90612 23.4977 7.05978 23.5743 7.33295C23.6339 7.52076 24.0935 9.21954 23.319 10.2098C23.2083 10.3293 23.0637 10.3976 22.9105 10.3976Z" fill="black"/>
<path d="M23.6596 42C23.3787 42 23.1489 41.7695 23.1489 41.4878C23.1489 37.228 23.1489 33.8646 23.2511 31.1926C23.4042 27.2743 23.7872 25.0463 24.5617 23.5012C24.6893 23.2451 24.9957 23.1512 25.251 23.2792C25.5064 23.4073 25.6 23.7146 25.4723 23.9707C24.7659 25.3707 24.417 27.4792 24.2638 31.2353C24.1702 33.8817 24.1702 37.2365 24.1702 41.4878C24.1702 41.7695 23.9404 42 23.6596 42Z" fill="black"/>
<path d="M0.510638 42C0.229787 42 0 41.7695 0 41.4878V21C0 16.4415 0.842553 12.9756 2.50213 10.7134C3.38723 9.49269 4.94468 8.19513 6.6383 8.19513C6.91915 8.19513 7.14894 8.42562 7.14894 8.70732C7.14894 8.98903 6.91915 9.21952 6.6383 9.21952C6.34043 9.21952 4.78298 9.32196 3.32766 11.311C1.82128 13.3768 1.02128 16.7232 1.02128 21V41.4878C1.02128 41.7695 0.791489 42 0.510638 42Z" fill="black"/>
<path d="M24.4428 31.7561C24.1619 31.7561 23.9321 31.5256 23.9321 31.2439C23.9321 30.9622 24.1619 30.7317 24.4428 30.7317C24.8598 30.7317 25.2513 30.7232 25.6768 30.7061C27.6172 30.6207 30.0343 30.3475 31.4726 28.9561C31.6598 28.7683 31.83 28.5719 31.9832 28.3756C30.8002 18.6097 29.83 17.4146 27.6002 16.7146C27.3279 16.6293 27.1832 16.339 27.2683 16.0744C27.3534 15.8012 27.6428 15.6561 27.9066 15.7414C30.9789 16.7061 31.8811 18.9597 33.03 28.461C33.047 28.589 33.013 28.7171 32.9364 28.8195C32.7236 29.1268 32.4768 29.4085 32.196 29.6902C32.196 29.6902 32.1875 29.6902 32.1875 29.6988C30.8683 30.9707 28.8768 31.6024 25.7194 31.739C25.2768 31.7475 24.8768 31.7561 24.4428 31.7561Z" fill="black"/>
<path d="M26.5106 42C26.2637 42 26.051 41.8208 26.0084 41.5732C25.9744 41.3683 25.1914 36.4512 25.1914 33.2927C25.1914 33.011 25.4212 32.7805 25.702 32.7805C25.9829 32.7805 26.2127 33.011 26.2127 33.2927C26.2127 36.3659 27.0042 41.3598 27.0127 41.4025C27.0552 41.6842 26.868 41.9488 26.5871 41.9915C26.5701 42 26.5361 42 26.5106 42Z" fill="black"/>
<path d="M31.83 42C31.5491 42 31.3193 41.7695 31.3193 41.4878V29.3146C31.3193 29.0329 31.5491 28.8024 31.83 28.8024C32.1108 28.8024 32.3406 29.0329 32.3406 29.3146V41.4878C32.3406 41.7695 32.1108 42 31.83 42Z" fill="black"/>
<path d="M12.766 23.561C12.5106 23.561 12.2638 23.4841 12.0511 23.339C11.8213 23.1768 11.7617 22.861 11.9149 22.6305C12.0766 22.4 12.3915 22.3402 12.6213 22.4939C12.6723 22.528 12.7149 22.5451 12.766 22.5451C13.0383 22.5451 13.5404 22.2122 13.7872 21.9902C14 21.8024 14.3234 21.8195 14.5106 22.0329C14.6979 22.2463 14.6809 22.5707 14.4681 22.7585C14.3149 22.8866 13.5234 23.561 12.766 23.561Z" fill="black"/>
<path d="M12.3064 23.4073C12.2043 23.4073 12.1022 23.3731 12.0085 23.3134C11.2681 22.7841 10.8851 21.3841 10.9788 19.5487C11.0468 18.3195 11.3192 17.0219 11.7617 15.9036C12.2809 14.589 13.0213 13.5134 13.8979 12.7963C14.1192 12.617 14.4426 12.6512 14.6128 12.8731C14.7915 13.0951 14.7575 13.4195 14.5362 13.5902C12.8171 14.9902 12.0851 17.7048 11.9915 19.6C11.9064 21.2219 12.2468 22.2292 12.5958 22.4768C12.8256 22.639 12.8766 22.9634 12.7149 23.1939C12.6298 23.339 12.4681 23.4073 12.3064 23.4073Z" fill="black"/>
<path d="M12.3405 23.4244C12.2554 23.4244 12.1703 23.4073 12.0937 23.3647H12.0852C11.7193 23.1854 11.2682 22.9122 10.749 22.5878C9.31075 21.7 7.34479 20.4793 5.20011 20.1464C4.91926 20.1037 4.73202 19.839 4.77458 19.5659C4.81713 19.2842 5.08096 19.0964 5.3533 19.139C7.70224 19.5061 9.77032 20.7866 11.2852 21.7171C11.7788 22.0244 12.2044 22.2805 12.5193 22.4427C12.5533 22.4598 12.6299 22.4939 12.698 22.5622C12.8937 22.7586 12.8937 23.0829 12.698 23.2878C12.5959 23.3732 12.4682 23.4244 12.3405 23.4244Z" fill="black"/>
<path d="M27.0638 3.75609C26.9362 3.75609 26.8 3.70487 26.7064 3.60243C26.5106 3.40609 26.5106 3.0817 26.7064 2.87682L28.0681 1.51096C28.2638 1.31462 28.5872 1.31462 28.7915 1.51096C28.9872 1.70731 28.9872 2.0317 28.7915 2.23657L27.4298 3.60243C27.3277 3.70487 27.1915 3.75609 27.0638 3.75609Z" fill="black"/>
<path d="M7.31908 3.07316C7.19142 3.07316 7.05525 3.02194 6.96164 2.9195L5.59993 1.55365C5.40419 1.35731 5.40419 1.03292 5.59993 0.828042C5.79568 0.631701 6.11908 0.631701 6.32334 0.828042L7.68504 2.1939C7.88078 2.39024 7.88078 2.71463 7.68504 2.9195C7.58291 3.02194 7.44674 3.07316 7.31908 3.07316Z" fill="black"/>
<path d="M4.59551 6.48785C4.54445 6.48785 4.48487 6.47932 4.43381 6.46224L2.39126 5.77932C2.12743 5.69395 1.98275 5.40371 2.06785 5.13054C2.15296 4.8659 2.44232 4.72078 2.71466 4.80615L4.75721 5.48907C5.02104 5.57444 5.16573 5.86468 5.08062 6.13785C5.01253 6.35127 4.80828 6.48785 4.59551 6.48785Z" fill="black"/>
</g>
<defs>
<clipPath id="clip0_9_74">
<rect width="40" height="42" fill="white"/>
</clipPath>
</defs>
</svg>
