<svg width="46" height="46" viewBox="0 0 46 46" fill="none" xmlns="http://www.w3.org/2000/svg">
<g clip-path="url(#clip0_8_222)">
<path d="M18.5121 42.4471C26.7739 42.4471 33.4714 35.7496 33.4714 27.4878C33.4714 19.226 26.7739 12.5284 18.5121 12.5284C10.2503 12.5284 3.55273 19.226 3.55273 27.4878C3.55273 35.7496 10.2503 42.4471 18.5121 42.4471Z" fill="black"/>
<path d="M45.4391 2.56179C45.4391 3.10406 45.2334 3.59024 44.8875 3.93618L44.822 4.01097L42.4285 6.52601L39.4834 3.58089L42.0732 1.1126C42.4285 0.766665 42.9147 0.560974 43.4476 0.560974C44.5415 0.560974 45.4391 1.45853 45.4391 2.56179Z" fill="black"/>
<path d="M20.7635 20.758L11.0386 30.4829L15.5275 34.9718L25.2524 25.2469L20.7635 20.758Z" fill="white"/>
<path d="M7.29322 40.9512C8.53249 40.9512 9.53712 39.9466 9.53712 38.7073C9.53712 37.4681 8.53249 36.4634 7.29322 36.4634C6.05395 36.4634 5.04932 37.4681 5.04932 38.7073C5.04932 39.9466 6.05395 40.9512 7.29322 40.9512Z" fill="black"/>
<path d="M42.4288 6.52606L34.4162 14.9687C33.7992 15.6232 33.3878 16.4647 33.2662 17.3622L32.9577 19.6435C32.724 21.2984 31.9666 22.8317 30.7886 24.0098L10.7524 44.0366C9.20038 45.5887 6.79753 45.8878 4.92761 44.7472C4.29184 44.3639 3.59997 43.8309 2.8894 43.1204C2.16948 42.4005 1.63656 41.7179 1.26257 41.0822C0.121922 39.2122 0.421109 36.8 1.97314 35.2574L22 15.2305C23.178 14.0525 24.7114 13.2858 26.3662 13.0614L28.6475 12.7435C29.5451 12.6126 30.3866 12.2106 31.041 11.5935L39.4837 3.58093L42.4288 6.52606ZM15.5207 34.9675L25.2443 25.2439L20.7565 20.7561L11.0329 30.4797L15.5207 34.9675ZM9.53696 38.7074C9.53696 37.4639 8.53656 36.4635 7.29306 36.4635C6.04956 36.4635 5.04916 37.4639 5.04916 38.7074C5.04916 39.9509 6.04956 40.9513 7.29306 40.9513C8.53656 40.9513 9.53696 39.9509 9.53696 38.7074Z" fill="white"/>
<path d="M7.38765 46C6.44334 46 5.48969 45.7476 4.63887 45.224C3.91895 44.7939 3.19904 44.2142 2.48847 43.513C1.78725 42.8118 1.20757 42.0825 0.77749 41.3626C-0.494054 39.2683 -0.166819 36.5943 1.57221 34.8459L21.599 14.8285C22.8612 13.5663 24.5255 12.7435 26.2925 12.5004L28.5738 12.1825C29.3592 12.0703 30.0791 11.7244 30.6588 11.1821L39.1015 3.16951L41.6913 0.710569C42.1588 0.252439 42.7852 0 43.4584 0C44.8608 0 46.0015 1.15 46.0015 2.56179C46.0015 3.22561 45.749 3.85203 45.3003 4.31951L45.2442 4.38496L45.2348 4.39431L42.8413 6.90935L34.8287 15.352C34.2864 15.9317 33.9405 16.6516 33.8283 17.437L33.5198 19.7183C33.2767 21.4854 32.4446 23.1496 31.1917 24.4118L11.1462 44.4386C10.1177 45.4671 8.76204 46 7.38765 46ZM43.449 1.12195C43.0751 1.12195 42.7198 1.2622 42.4673 1.51463L39.8681 3.98293L31.4255 11.9955C30.6775 12.7061 29.7425 13.1549 28.7234 13.2951L26.4421 13.613C24.9181 13.8187 23.4877 14.5293 22.3938 15.6232L2.35757 35.65C0.983182 37.0244 0.721393 39.1374 1.73115 40.7923C2.11448 41.4374 2.63806 42.0919 3.28318 42.7276C3.91895 43.3634 4.57343 43.887 5.21855 44.2703C6.87343 45.2801 8.98643 45.0183 10.3608 43.6439L30.397 23.6171C31.4816 22.5232 32.1921 21.0927 32.4072 19.5687L32.7157 17.2874C32.8559 16.2683 33.3047 15.3333 34.0153 14.5854L42.0279 6.14268L44.412 3.62764L44.4775 3.5622C44.4868 3.55285 44.4868 3.55285 44.4962 3.5435C44.7486 3.28171 44.8889 2.93577 44.8889 2.56179C44.8795 1.76707 44.2438 1.12195 43.449 1.12195Z" fill="black"/>
<path d="M15.5205 35.5285C15.3709 35.5285 15.2306 35.4724 15.1278 35.3602L10.64 30.8724C10.5371 30.7695 10.4717 30.6199 10.4717 30.4797C10.4717 30.3394 10.5278 30.1898 10.64 30.087L20.3635 20.3634C20.5786 20.1484 20.9339 20.1484 21.1583 20.3634L25.6461 24.8512C25.8611 25.0663 25.8611 25.4216 25.6461 25.6459L15.9225 35.3695C15.8196 35.4724 15.6701 35.5285 15.5205 35.5285ZM11.8274 30.4797L15.5205 34.1728L24.4493 25.2439L20.7562 21.5508L11.8274 30.4797Z" fill="black"/>
<path d="M7.29267 41.5122C5.74999 41.5122 4.48779 40.25 4.48779 38.7073C4.48779 37.1646 5.74999 35.9024 7.29267 35.9024C8.83535 35.9024 10.0975 37.1646 10.0975 38.7073C10.0975 40.25 8.8447 41.5122 7.29267 41.5122ZM7.29267 37.0244C6.36706 37.0244 5.60974 37.7817 5.60974 38.7073C5.60974 39.6329 6.36706 40.3902 7.29267 40.3902C8.21828 40.3902 8.9756 39.6329 8.9756 38.7073C8.9756 37.7817 8.22763 37.0244 7.29267 37.0244Z" fill="#303E58"/>
<path d="M15.5203 31.0407C15.38 31.0407 15.2304 30.9846 15.1276 30.8724C14.9125 30.6574 14.9125 30.3021 15.1276 30.0777L16.6235 28.5818C16.8386 28.3667 17.1939 28.3667 17.4182 28.5818C17.6333 28.7968 17.6333 29.1521 17.4182 29.3765L15.9223 30.8724C15.8101 30.9846 15.6699 31.0407 15.5203 31.0407Z" fill="black"/>
<path d="M19.2605 27.3008C19.1203 27.3008 18.9707 27.2447 18.8678 27.1325C18.6528 26.9175 18.6528 26.5622 18.8678 26.3378L20.3638 24.8419C20.5788 24.6268 20.9341 24.6268 21.1585 24.8419C21.3735 25.0569 21.3735 25.4122 21.1585 25.6366L19.6625 27.1325C19.5503 27.2447 19.4101 27.3008 19.2605 27.3008Z" fill="black"/>
<path d="M42.4284 7.08699C42.2881 7.08699 42.1385 7.03089 42.0357 6.9187L39.0812 3.97357C38.8662 3.75853 38.8662 3.40325 39.0812 3.17886C39.2962 2.96382 39.6515 2.96382 39.8759 3.17886L42.8211 6.12398C43.0361 6.33902 43.0361 6.69431 42.8211 6.9187C42.7182 7.03089 42.5686 7.08699 42.4284 7.08699Z" fill="black"/>
<path d="M8.04047 23.561C7.73193 23.561 7.47949 23.3085 7.47949 23C7.47949 19.8024 10.0787 17.2032 13.2762 17.2032C13.5848 17.2032 13.8372 17.4557 13.8372 17.7642C13.8372 18.0728 13.5848 18.3252 13.2762 18.3252C10.6958 18.3252 8.60144 20.4195 8.60144 23C8.60144 23.3085 8.349 23.561 8.04047 23.561Z" fill="white"/>
<path d="M22.9999 38.5203C22.6914 38.5203 22.439 38.2679 22.439 37.9593C22.439 37.6508 22.6914 37.3984 22.9999 37.3984C25.5804 37.3984 27.6747 35.3041 27.6747 32.7236C27.6747 32.415 27.9272 32.1626 28.2357 32.1626C28.5443 32.1626 28.7967 32.415 28.7967 32.7236C28.7967 35.9211 26.1975 38.5203 22.9999 38.5203Z" fill="white"/>
<path d="M2.05658 23.561C1.74804 23.561 1.49561 23.3086 1.49561 23C1.49561 16.5021 6.77813 11.2195 13.2761 11.2195C13.5846 11.2195 13.8371 11.472 13.8371 11.7805C13.8371 12.0891 13.5846 12.3415 13.2761 12.3415C7.3952 12.3415 2.61756 17.1191 2.61756 23C2.61756 23.3086 2.36512 23.561 2.05658 23.561Z" fill="white"/>
<path d="M22.9999 44.5041C22.6914 44.5041 22.439 44.2516 22.439 43.9431C22.439 43.6345 22.6914 43.3821 22.9999 43.3821C28.8808 43.3821 33.6585 38.6045 33.6585 32.7236C33.6585 32.415 33.9109 32.1626 34.2195 32.1626C34.528 32.1626 34.7804 32.415 34.7804 32.7236C34.7804 39.2215 29.4979 44.5041 22.9999 44.5041Z" fill="white"/>
</g>
<defs>
<clipPath id="clip0_8_222">
<rect width="46" height="46" fill="white"/>
</clipPath>
</defs>
</svg>
