<svg width="50" height="51" viewBox="0 0 50 51" fill="none" xmlns="http://www.w3.org/2000/svg">
<path d="M24.6731 33.7908C33.834 33.7908 41.2603 26.3645 41.2603 17.2036C41.2603 8.04279 33.834 0.616455 24.6731 0.616455C15.5123 0.616455 8.08594 8.04279 8.08594 17.2036C8.08594 26.3645 15.5123 33.7908 24.6731 33.7908Z" fill="white"/>
<path d="M29.7118 15.7833C30.0642 18.9142 31.9096 20.3137 32.1376 21.3504C32.2724 21.9517 34.719 26.3058 37.5285 30.2868C37.5285 30.2868 37.5285 30.2868 37.5285 30.2971C37.5907 32.3913 37.1138 35.4599 37.1138 35.4599C37.1138 37.4607 36.2844 44.2718 36.2844 50.3884H13.0624C13.0624 44.2718 12.233 37.4607 12.233 35.4599C12.233 35.4599 11.8183 32.3602 11.5073 30.7429C14.4516 26.6479 17.0744 21.9932 17.2092 21.3608C17.4372 20.3759 19.1271 19.0489 19.5728 16.198H19.5832C19.6454 17.8153 20.5266 19.702 20.5266 19.702C20.9413 20.9461 22.6 22.1901 24.6734 22.1901C26.7468 22.1901 28.4055 20.9461 28.8202 19.702C28.8202 19.6917 29.9087 16.9755 29.7118 15.7833Z" fill="black"/>
<path d="M29.7121 15.7832C29.9091 16.9754 28.8205 19.6916 28.8205 19.6916C28.4059 20.9356 26.7471 22.1797 24.6737 22.1797C22.6003 22.1797 20.9416 20.9356 20.5269 19.6916C20.5269 19.6916 19.6354 17.8048 19.5835 16.1875H19.5732C19.6561 15.7314 19.6976 15.2441 19.6976 14.7154C19.6976 13.8653 19.625 13.1707 19.4902 12.6317C19.9671 12.0096 21.3563 12.2273 21.3563 12.2273C23.0668 12.2273 23.1602 13.0567 24.6737 13.0567C26.1873 13.0567 26.2806 12.2273 27.9912 12.2273C27.9912 12.2273 29.37 12.1237 29.8883 12.5176C29.7432 13.0774 29.6499 13.7928 29.6499 14.7154C29.6499 15.099 29.6706 15.4411 29.7121 15.7832Z" fill="white"/>
<path d="M30.4794 8.90996C30.4794 8.90996 30.7489 9.88446 30.7489 11.0041C30.3964 11.284 30.0958 11.7505 29.8884 12.5177C29.3701 12.1237 27.9913 12.2274 27.9913 12.2274C26.2807 12.2274 26.1874 13.0568 24.6738 13.0568C23.1603 13.0568 23.067 12.2274 21.3564 12.2274C21.3564 12.2274 19.9672 12.0097 19.4903 12.6317C19.283 11.8024 18.9616 11.3047 18.5988 11.0041C18.1841 9.60455 18.8683 8.90996 18.8683 8.90996C19.7495 6.21454 22.8907 5.59252 24.6738 5.59252C24.9019 5.59252 25.13 5.58215 25.3892 5.58215C26.2807 5.58215 27.3174 5.64436 28.2712 6.14197C29.0383 6.24564 29.5049 6.45298 30.4897 5.9139C30.4794 5.9139 30.8733 8.0806 30.4794 8.90996Z" fill="white"/>
<path d="M48.7252 32.9614C48.7252 36.0715 46.4963 37.1082 44.5784 37.1082C42.8575 37.1082 40.048 33.853 37.5288 30.2867C37.5288 30.2764 37.5288 30.2764 37.5288 30.2764C34.7194 26.2955 32.2728 21.9517 32.138 21.34C31.9099 20.3033 30.0646 18.9038 29.7121 15.7729C29.6706 15.4308 29.6499 15.0887 29.6499 14.7051C29.6499 13.7825 29.7432 13.0672 29.8883 12.5073C30.0957 11.7402 30.4067 11.284 30.7488 10.9938C31.2257 10.5998 31.744 10.5583 32.138 10.5583C33.5064 10.5583 33.6205 13.233 34.0248 15.3064C34.1803 16.1358 34.3773 16.8615 34.7297 17.2865C36.4818 19.8783 39.6541 22.8018 42.5464 25.4868C42.5464 25.4972 42.5464 25.4972 42.5464 25.4972C45.812 28.5762 48.7252 31.3338 48.7252 32.9614Z" fill="white"/>
<path d="M17.2093 10.5687C17.6032 10.5687 18.1216 10.6206 18.5984 11.0041C18.9613 11.3048 19.2827 11.8024 19.49 12.6318C19.6248 13.1708 19.6973 13.8551 19.6973 14.7155C19.6973 15.2442 19.6559 15.7315 19.5729 16.1876C19.1272 19.0282 17.4373 20.3552 17.2093 21.3504C17.0641 21.9828 14.4516 26.6376 11.5074 30.7325C9.0608 34.1122 6.40685 37.1082 4.76887 37.1082C2.85097 37.1082 0.62207 36.0715 0.62207 32.9614C0.62207 31.3338 3.5352 28.5762 6.81117 25.5179C6.81117 25.5179 6.81117 25.5179 6.81117 25.5076C9.69319 22.8225 12.8759 19.899 14.6175 17.3073C14.97 16.8822 15.167 16.1565 15.3225 15.3272C15.7268 13.2434 15.8408 10.5687 17.2093 10.5687Z" fill="white"/>
<path d="M41.2606 19.6917C42.2765 20.9046 42.5253 25.2795 42.5357 25.5075C39.6537 22.8225 36.471 19.899 34.7294 17.3072C34.3769 16.8822 34.1799 16.1565 34.0244 15.3271C37.5285 16.8615 40.3379 18.5824 41.2606 19.6917Z" fill="black"/>
<path d="M15.3225 15.3168C15.1669 16.1461 14.97 16.8718 14.6175 17.2969C12.8655 19.8886 9.69317 22.8121 6.80078 25.4972C6.82152 25.2691 7.07032 20.8942 8.07592 19.6813C9.00895 18.5824 11.8184 16.8615 15.3225 15.3168Z" fill="black"/>
<path d="M24.6734 13.6788C23.7922 13.6788 23.2946 13.43 22.8488 13.2226C22.4445 13.0256 22.092 12.8494 21.356 12.8494C21.3249 12.8494 21.2938 12.8494 21.2627 12.839C20.7754 12.7665 20.1327 12.8287 19.9875 13.0153C19.7802 13.2848 19.3863 13.3367 19.1167 13.1293C18.8472 12.922 18.7953 12.528 19.0027 12.2585C19.6454 11.4291 21.0242 11.5535 21.4078 11.6157C22.4031 11.6261 22.9525 11.8956 23.3983 12.1133C23.7819 12.3 24.0825 12.4451 24.6734 12.4451C25.2643 12.4451 25.565 12.3 25.9486 12.1133C26.3944 11.8956 26.9542 11.6261 27.9701 11.6157C28.3744 11.5846 29.6185 11.5535 30.2612 12.0304C30.5411 12.2378 30.593 12.6213 30.3856 12.9012C30.1783 13.1811 29.7947 13.233 29.5148 13.0256C29.3178 12.8805 28.5714 12.8183 28.0323 12.8598C28.022 12.8598 28.0012 12.8598 27.9909 12.8598C27.2548 12.8598 26.9023 13.036 26.498 13.233C26.0522 13.43 25.5546 13.6788 24.6734 13.6788Z" fill="black"/>
<path d="M24.6737 22.8017C22.2271 22.8017 20.4025 21.2984 19.936 19.8885C19.8323 19.5672 20.0085 19.2147 20.3299 19.1006C20.6513 18.997 21.0038 19.1732 21.1178 19.4946C21.4599 20.5106 22.8802 21.5576 24.6737 21.5576C26.4672 21.5576 27.8875 20.5106 28.2296 19.4946C28.3332 19.1732 28.6857 18.997 29.0175 19.1006C29.3388 19.2043 29.5151 19.5568 29.4114 19.8885C28.9449 21.2984 27.1203 22.8017 24.6737 22.8017Z" fill="black"/>
<path d="M4.76882 37.7302C2.57102 37.7302 0 36.4862 0 32.9614C0 31.1575 2.38441 28.7939 6.32387 25.1136C6.3446 25.0928 6.36534 25.0721 6.38607 25.0514L6.69708 24.7611C9.52727 22.1279 12.4611 19.4014 14.0991 16.9547C14.1095 16.934 14.1198 16.9236 14.1302 16.9029C14.4205 16.5504 14.5967 15.7625 14.7004 15.2027C14.773 14.8295 14.8352 14.4252 14.8974 14.0416C15.2188 12.1237 15.5609 9.94666 17.2092 9.94666C17.6757 9.94666 18.36 10.0089 18.9923 10.5272C19.5107 10.9523 19.8735 11.595 20.0912 12.4866C20.2364 13.0982 20.3193 13.8446 20.3193 14.7155C20.3193 15.2857 20.2778 15.804 20.1845 16.2913C19.8735 18.261 19.0131 19.5361 18.3911 20.4692C18.1111 20.8838 17.8623 21.2467 17.8105 21.4851C17.6239 22.3145 14.8352 27.1559 12.005 31.0953C8.79121 35.5635 6.42754 37.7302 4.76882 37.7302ZM7.29837 25.9015C7.27763 25.9222 7.2569 25.9429 7.23616 25.9637C4.56148 28.4621 1.24404 31.5618 1.24404 32.9614C1.24404 36.227 3.93946 36.4862 4.76882 36.4862C6.45864 36.4862 9.96268 31.8003 10.9994 30.3696C13.9851 26.2125 16.4524 21.7547 16.6079 21.2156C16.7116 20.7594 17.0019 20.324 17.3647 19.7849C17.9556 18.9037 18.6917 17.8048 18.9612 16.1047V16.0943C19.0338 15.6692 19.0753 15.2235 19.0753 14.7258C19.0753 13.9483 19.0131 13.3056 18.8887 12.7976C18.7332 12.1859 18.5051 11.7505 18.2044 11.5017C17.8831 11.2425 17.5202 11.2011 17.2092 11.2011C16.6287 11.2011 16.3384 13.036 16.1414 14.249C16.0792 14.6533 16.017 15.0576 15.9341 15.4515C15.7889 16.2394 15.5712 17.1206 15.1151 17.6908C13.3838 20.2411 10.4188 23.0091 7.53681 25.6838L7.29837 25.9015Z" fill="black"/>
<path d="M37.5289 30.9087C37.3319 30.9087 37.1453 30.8154 37.0209 30.6495C34.284 26.7723 31.7026 22.2626 31.5264 21.4955C31.4746 21.257 31.2257 20.8942 30.9458 20.4692C30.3031 19.5154 29.339 18.0744 29.0901 15.8662C29.0383 15.4826 29.0176 15.1094 29.0176 14.7258C29.0176 13.8032 29.1109 13.0153 29.2768 12.3622C29.5048 11.5328 29.8573 10.9315 30.3446 10.5272C30.9769 10.0089 31.6612 9.94666 32.1173 9.94666C32.8948 9.94666 33.4858 10.4546 33.859 11.4706C34.1285 12.1963 34.2736 13.1293 34.4188 14.0416C34.481 14.4356 34.5432 14.8399 34.6158 15.2027C34.7194 15.7625 34.8957 16.5504 35.1859 16.9029C35.1963 16.9133 35.2067 16.934 35.217 16.9547C36.8654 19.4014 39.7889 22.1175 42.6191 24.7611L42.9301 25.0514C43.1789 25.2898 43.1996 25.6838 42.9612 25.9326C42.7227 26.1814 42.3288 26.2021 42.08 25.9637L41.769 25.6734C38.8973 22.9987 35.922 20.2307 34.1907 17.6804C33.7346 17.1103 33.5272 16.2291 33.3717 15.4412C33.2991 15.0472 33.2266 14.6325 33.1644 14.2386C32.9674 13.0257 32.6771 11.1907 32.0966 11.1907C31.7856 11.1907 31.4227 11.2218 31.1117 11.4913C30.8214 11.7194 30.6037 12.1237 30.4586 12.6835C30.3135 13.2226 30.2409 13.9068 30.2409 14.7155C30.2409 15.0472 30.2616 15.3686 30.3031 15.7107C30.5208 17.6286 31.3502 18.8623 31.9514 19.7642C32.3143 20.3137 32.6149 20.7491 32.7186 21.2156C32.8534 21.7236 35.1237 25.8393 38.0058 29.9239C38.2027 30.2038 38.1405 30.5977 37.8606 30.7947C37.7777 30.8673 37.6533 30.9087 37.5289 30.9087Z" fill="black"/>
<path d="M44.578 37.7302C42.8674 37.7302 40.4001 35.4183 37.0204 30.6495C36.8234 30.3696 36.8857 29.986 37.1656 29.7787C37.4455 29.5817 37.829 29.6439 38.0364 29.9238C39.4359 31.9039 40.7007 33.4693 41.7996 34.589C43.4065 36.227 44.2255 36.4758 44.578 36.4758C45.4073 36.4758 48.1027 36.2166 48.1027 32.951C48.1027 31.5514 44.7853 28.4517 42.1106 25.9533C41.8618 25.7148 41.8411 25.3209 42.0795 25.0721C42.318 24.8233 42.7119 24.8025 42.9607 25.041C46.9313 28.7524 49.3468 31.1368 49.3468 32.9406C49.3468 36.4861 46.7758 37.7302 44.578 37.7302Z" fill="black"/>
<path d="M30.4788 4.55586C30.3855 4.55586 30.2922 4.53512 30.1989 4.49365C29.8879 4.33815 29.7635 3.96494 29.919 3.66429L31.5777 0.346856C31.7332 0.0358459 32.1064 -0.0885581 32.4071 0.0669468C32.7181 0.222452 32.8425 0.595664 32.687 0.896307L31.0283 4.21375C30.9246 4.43145 30.7069 4.55586 30.4788 4.55586Z" fill="black"/>
<path d="M18.868 4.55586C18.6399 4.55586 18.4222 4.43145 18.3082 4.21375L16.6495 0.896307C16.494 0.585297 16.6184 0.212085 16.9294 0.0669468C17.2404 -0.0885581 17.6136 0.0358459 17.7587 0.346856L19.4175 3.66429C19.573 3.9753 19.4486 4.34852 19.1375 4.49365C19.0546 4.53512 18.9613 4.55586 18.868 4.55586Z" fill="black"/>
<path d="M36.2847 8.70254C36.0877 8.70254 35.8908 8.60924 35.7664 8.42263C35.5798 8.13235 35.6523 7.74878 35.9426 7.56217L38.4307 5.90345C38.721 5.71684 39.1045 5.78941 39.2911 6.07969C39.4777 6.36996 39.4052 6.75354 39.1149 6.94015L36.6268 8.59887C36.5232 8.67144 36.3988 8.70254 36.2847 8.70254Z" fill="black"/>
<path d="M13.0623 8.70254C12.9483 8.70254 12.8239 8.67144 12.7202 8.59887L10.2322 6.94015C9.94188 6.75354 9.86931 6.3596 10.0559 6.07969C10.2425 5.78941 10.6365 5.71684 10.9164 5.90345L13.4045 7.56217C13.6947 7.74878 13.7673 8.14272 13.5807 8.42263C13.4563 8.60924 13.2593 8.70254 13.0623 8.70254Z" fill="black"/>
<path d="M42.5358 26.1296C42.1937 26.1296 41.9241 25.8601 41.9138 25.5284V25.4973C41.7375 22.8226 41.2918 20.6973 40.7838 20.0961C40.0581 19.2252 37.6115 17.5872 33.7653 15.8974C33.4543 15.7627 33.3092 15.3894 33.4439 15.0784C33.5787 14.7674 33.9519 14.6223 34.2629 14.7571C37.8603 16.3328 40.7216 18.0745 41.7272 19.2978C42.6809 20.4382 43.023 23.6208 43.1475 25.4143V25.4558C43.1475 25.4662 43.1475 25.4869 43.1475 25.4973C43.1578 25.8497 42.8779 26.1296 42.5358 26.1296Z" fill="black"/>
<path d="M6.81098 26.1296C6.46887 26.1296 6.18896 25.86 6.18896 25.5076C6.18896 25.4972 6.18896 25.4661 6.18896 25.4557V25.4143C6.303 23.6208 6.64511 20.4381 7.60924 19.2874C8.61484 18.0641 11.4865 16.3224 15.0735 14.7466C15.3845 14.6118 15.7577 14.7466 15.8925 15.068C16.0272 15.3894 15.8925 15.7522 15.5711 15.887C11.7353 17.5768 9.27833 19.2148 8.56301 20.0856C8.04466 20.6973 7.60924 22.8225 7.433 25.4972V25.5387C7.41227 25.8704 7.14273 26.1296 6.81098 26.1296Z" fill="#303E58"/>
<path d="M13.0622 51C12.7201 51 12.4402 50.7201 12.4402 50.378C12.4402 46.5111 12.1085 42.354 11.8596 39.3268C11.7145 37.5851 11.6108 36.2063 11.6108 35.4495C11.6108 35.1074 11.8907 34.8275 12.2329 34.8275C12.575 34.8275 12.8549 35.1074 12.8549 35.4495C12.8549 36.1545 12.9689 37.5126 13.1037 39.2231C13.3525 42.271 13.6842 46.4593 13.6842 50.378C13.6842 50.7201 13.4043 51 13.0622 51Z" fill="black"/>
<path d="M36.2846 51C35.9425 51 35.6626 50.7201 35.6626 50.378C35.6626 46.4593 35.9943 42.2814 36.2432 39.2231C36.3779 37.5022 36.492 36.1545 36.492 35.4495C36.492 35.1074 36.7719 34.8275 37.114 34.8275C37.4561 34.8275 37.736 35.1074 37.736 35.4495C37.736 36.2063 37.622 37.5748 37.4872 39.3268C37.2384 42.354 36.9066 46.5111 36.9066 50.378C36.9066 50.7201 36.6267 51 36.2846 51Z" fill="black"/>
<path d="M18.8678 9.53205C18.8056 9.53205 18.7434 9.52168 18.6708 9.50095C18.3391 9.39728 18.1628 9.0448 18.2769 8.71306C18.7123 7.36535 19.7179 6.30791 21.1796 5.66516C22.6207 5.03277 24.1031 4.96021 24.6733 4.96021C24.777 4.96021 24.8807 4.96021 24.9947 4.96021C25.1191 4.96021 25.2539 4.96021 25.3886 4.96021C26.332 4.96021 27.4309 5.03277 28.4573 5.54076C28.5506 5.55112 28.6335 5.57186 28.7165 5.58222C29.2452 5.67553 29.5458 5.717 30.1782 5.36452C30.3544 5.27121 30.5618 5.26085 30.7484 5.34378C30.935 5.42672 31.0594 5.59259 31.0905 5.78956C31.1631 6.18351 31.5052 8.20507 31.0387 9.16921C30.8935 9.48022 30.5203 9.60462 30.2093 9.45948C29.8983 9.31434 29.7739 8.94113 29.919 8.63012C30.0745 8.30874 30.0538 7.51049 29.9812 6.79516C29.4007 6.95067 28.9549 6.8781 28.5195 6.80553C28.4158 6.7848 28.3018 6.77443 28.1877 6.75369C28.1152 6.74333 28.0426 6.72259 27.9804 6.69149C27.1614 6.25608 26.2595 6.20424 25.3886 6.20424C25.2642 6.20424 25.1398 6.20424 25.0154 6.20424C24.9014 6.20424 24.7874 6.20424 24.6733 6.20424C23.958 6.20424 20.3607 6.33902 19.4587 9.09664C19.3758 9.36618 19.127 9.53205 18.8678 9.53205Z" fill="black"/>
</svg>
