<svg width="42" height="44" viewBox="0 0 42 44" fill="none" xmlns="http://www.w3.org/2000/svg">
<g clip-path="url(#clip0_9_2)">
<path d="M27.7022 29.0754C35.5987 29.0754 42 22.6864 42 14.8053C42 6.9241 35.5987 0.535156 27.7022 0.535156C19.8057 0.535156 13.4043 6.9241 13.4043 14.8053C13.4043 22.6864 19.8057 29.0754 27.7022 29.0754Z" fill="white"/>
<path d="M23.4307 15.5188C22.6979 14.2077 21.7507 13.3783 20.5532 13.3783C18.5694 13.3783 15.8439 15.2066 13.4758 18.6671L11.9298 17.6593C11.5188 17.0528 11.3579 15.9826 11.2954 15.1353C11.2417 14.4218 11.2596 13.8688 11.2596 13.8688C11.2596 13.8688 10.0532 12.754 10.0532 11.3269C10.0532 10.988 10.1068 10.6313 10.2141 10.3013V10.2924C10.5268 9.24886 11.2864 8.38374 12.0549 8.38374C13.0826 8.38374 13.3953 9.09724 13.3953 9.09724C14.289 7.75942 16.2549 6.95673 16.2549 6.95673C16.2549 6.95673 18.6677 9.09724 21.2592 9.09724C22.5371 9.09724 23.5558 8.86535 24.3511 8.54428C24.369 8.70482 24.646 11.1307 24.369 12.9948C24.369 12.9948 24.1188 14.1899 23.6362 15.1353C23.5826 15.2691 23.5111 15.3939 23.4307 15.5188Z" fill="white"/>
<path d="M17.6757 25.4454C17.6578 25.9092 17.6221 26.2838 17.5774 26.7565C17.5595 26.9438 16.7106 29.0932 16.3978 32.197H16.3889L12.8502 28.2013C11.0629 27.024 7.59571 30.984 6.52337 34.3821C6.39826 34.7656 6.3089 35.1402 6.25528 35.4969C5.87103 38.0031 6.38039 39.4212 7.18464 40.0634C5.92464 39.1358 2.68975 33.5883 1.25103 28.1656C0.804218 26.5067 0.536133 24.8657 0.536133 23.3673C0.536133 16.812 5.0489 15.9647 8.39996 15.5188L11.2595 15.1353H11.2953C11.3578 15.9825 11.5187 17.0528 11.9297 17.6593L13.4757 18.6671C12.6804 19.8176 11.9297 21.1465 11.2595 22.6538C11.2595 22.6538 13.1361 24.4822 14.1191 24.7943C14.1191 24.7943 14.6195 25.16 15.6919 25.3651L17.6757 25.4454Z" fill="black"/>
<path d="M6.25563 35.4969C6.30924 35.1402 6.39861 34.7656 6.52371 34.3821L8.40031 35.4969C8.40031 35.4969 9.60669 36.4067 11.2599 37.4412L10.545 39.0645C10.545 39.0645 9.74073 40.4915 8.40031 40.4915C8.01605 40.4915 7.6318 40.3844 7.28329 40.1347C7.25648 40.1169 7.22073 40.0901 7.18499 40.0634C6.38073 39.4212 5.87137 38.0031 6.25563 35.4969Z" fill="#EBEDF0"/>
<path d="M11.2596 37.4412C9.60642 36.4067 8.40003 35.4969 8.40003 35.4969L6.52344 34.3821C7.59578 30.9751 11.0541 27.0151 12.8413 28.2013L16.38 32.197H16.389C16.7017 29.0843 17.5507 26.9349 17.5685 26.7565C17.6222 26.2749 17.649 25.9092 17.6668 25.4454C17.6847 25.0798 17.6847 24.6517 17.6847 24.0809C17.6847 22.7698 18.3996 21.9403 18.8017 20.8701C18.9983 20.3349 20.1422 17.6593 21.2592 17.6593C22.4656 17.6593 22.689 17.9715 22.689 21.9403C22.689 23.849 22.1707 24.3127 22.0188 25.5079C21.9919 25.713 21.9741 25.9538 21.9741 26.2214C21.9741 28.0051 22.689 35.8537 22.689 37.6375C22.689 39.4212 21.1251 40.4915 18.3996 40.4915C16.4962 40.4915 13.4758 38.8415 11.2596 37.4412Z" fill="white"/>
<path d="M33.4748 31.528C32.3131 32.2059 30.3471 33.0264 27.3982 33.2761C26.9514 33.3118 26.4778 33.3386 25.9863 33.3475C25.6825 36.3353 25.5574 39.7958 25.5574 43.3455H1.96587C1.96587 40.2596 1.31353 34.0967 1.25098 28.1656C2.6897 33.5972 5.92459 39.1358 7.18459 40.0634C7.22034 40.0901 7.25608 40.1169 7.28289 40.1347C7.62247 40.3844 8.01566 40.4915 8.39991 40.4915C9.74034 40.4915 10.5446 39.0644 10.5446 39.0644L11.2595 37.4412C13.4757 38.8415 16.4961 40.4915 18.4084 40.4915C21.134 40.4915 22.6978 39.4212 22.6978 37.6374C22.6978 35.8537 21.9829 28.0051 21.9829 26.2213C21.9829 25.9538 22.0008 25.713 22.0276 25.5078H24.1276C26.0488 25.5078 26.9871 24.7943 26.9871 24.7943C26.9871 24.7943 25.7003 23.1087 24.9318 19.7552C24.5565 18.132 24.074 16.6425 23.4395 15.5188C23.5199 15.3939 23.5914 15.269 23.6629 15.1353L26.2723 16.2323C32.4829 18.239 33.5105 19.5768 34.851 30.5024C34.851 30.5024 34.431 30.9751 33.4748 31.528Z" fill="black"/>
<path d="M23.4305 15.5188C24.065 16.6425 24.5564 18.132 24.9228 19.7552C25.6913 23.1087 26.9781 24.7943 26.9781 24.7943C26.9781 24.7943 26.0398 25.5078 24.1186 25.5078H22.0186C22.1794 24.3127 22.6888 23.8489 22.6888 21.9403C22.6888 17.9714 22.4654 17.6593 21.259 17.6593C20.142 17.6593 18.9981 20.3349 18.8016 20.87C18.3994 21.9403 17.6845 22.7698 17.6845 24.0808C17.6845 24.6516 17.6756 25.0797 17.6667 25.4454L15.6828 25.3651C14.6105 25.16 14.1101 24.7943 14.1101 24.7943C13.1271 24.4822 11.2505 22.6538 11.2505 22.6538C11.9207 21.1465 12.6713 19.8176 13.4667 18.6671C15.8347 15.2066 18.5603 13.3782 20.5441 13.3782C21.7505 13.3782 22.6977 14.2077 23.4305 15.5188Z" fill="white"/>
<path d="M26.9874 6.2432C26.9874 6.2432 26.3618 7.70589 24.3601 8.53534V8.54426C23.5559 8.87425 22.5461 9.09722 21.2682 9.09722C18.6767 9.09722 16.264 6.95671 16.264 6.95671C16.264 6.95671 14.298 7.7594 13.4044 9.09722C13.4044 9.09722 13.0916 8.38372 12.064 8.38372C11.2955 8.38372 10.5359 9.24884 10.2231 10.2923C10.0176 9.56992 9.83887 7.52751 9.83887 6.95671C9.83887 5.08375 10.7504 3.72809 11.7065 2.90756C13.0738 1.7392 15.5491 1.96217 15.5491 1.96217C15.5491 1.96217 16.4874 0.535156 19.1235 0.535156C23.3682 0.535156 24.4406 6.2432 26.9874 6.2432Z" fill="white"/>
<path d="M10.214 10.8274C9.98169 10.8274 9.76722 10.6758 9.69573 10.4439C9.47233 9.65908 9.28467 7.54532 9.28467 6.9656C9.28467 4.61103 10.5715 3.16618 11.34 2.51511C12.5911 1.45377 14.5659 1.40025 15.2987 1.42701C15.7455 0.945395 16.8983 0 19.1234 0C21.7864 0 23.3145 1.99782 24.5387 3.6032C25.3966 4.72697 26.1472 5.70805 26.9872 5.70805C27.2821 5.70805 27.5234 5.94885 27.5234 6.24317C27.5234 6.5375 27.2821 6.7783 26.9872 6.7783C25.6111 6.7783 24.6728 5.55643 23.6808 4.25428C22.4923 2.69348 21.2502 1.07026 19.1234 1.07026C17.8902 1.07026 17.0859 1.40917 16.6302 1.70349C16.1834 1.9889 15.9957 2.25646 15.9957 2.25646C15.8885 2.42592 15.6919 2.51511 15.4953 2.49727C15.4774 2.49727 13.2255 2.30997 12.037 3.3178C11.4115 3.85293 10.357 5.03021 10.357 6.95668C10.357 7.47397 10.5357 9.48962 10.7234 10.1407C10.8038 10.4261 10.643 10.7204 10.357 10.8007C10.3123 10.8185 10.2676 10.8274 10.214 10.8274Z" fill="black"/>
<path d="M11.93 18.1944C11.7602 18.1944 11.5904 18.1141 11.4832 17.9625C11.09 17.3917 10.8577 16.482 10.7504 15.1709C10.7147 14.7071 10.7147 14.3147 10.7147 14.0828C10.3394 13.6814 9.5083 12.6201 9.5083 11.318C9.5083 10.9345 9.57085 10.5509 9.68702 10.1674C9.68702 10.1585 9.69596 10.1407 9.69596 10.1318C10.107 8.78502 11.0811 7.84854 12.064 7.84854C12.6449 7.84854 13.0828 8.03584 13.3866 8.26772C14.4321 7.13503 15.987 6.49288 16.0674 6.46612C16.2551 6.38585 16.4696 6.43045 16.6215 6.56423C16.6394 6.58207 18.9181 8.57096 21.2683 8.57096C22.3496 8.57096 23.3236 8.40151 24.1636 8.05367C24.4406 7.93773 24.7534 8.07151 24.8606 8.34799C24.9768 8.62448 24.8428 8.93664 24.5657 9.04366C23.6006 9.43609 22.4926 9.64122 21.2683 9.64122C18.9985 9.64122 16.9164 8.16962 16.1836 7.58989C15.6385 7.85746 14.45 8.49961 13.8513 9.40041C13.744 9.56987 13.5474 9.66798 13.3509 9.65014C13.1543 9.6323 12.9934 9.50744 12.913 9.32906C12.8772 9.26663 12.6717 8.92772 12.0551 8.92772C11.5815 8.92772 10.9917 9.59663 10.7326 10.4172C10.7326 10.435 10.7236 10.4528 10.7236 10.4618C10.6343 10.7472 10.5806 11.0415 10.5806 11.3269C10.5806 12.4952 11.6083 13.4763 11.6172 13.4852C11.7245 13.5923 11.787 13.735 11.787 13.8866C11.787 13.8955 11.7781 14.4217 11.8228 15.0995C11.93 16.4641 12.1802 17.0795 12.3679 17.3649C12.5377 17.6057 12.4751 17.9446 12.2249 18.1052C12.1445 18.1676 12.0372 18.1944 11.93 18.1944Z" fill="black"/>
<path d="M24.3602 9.07043C24.1457 9.07043 23.9491 8.94557 23.8687 8.74044C23.7525 8.46395 23.8866 8.15179 24.1547 8.04477C25.9061 7.32234 26.4691 6.09155 26.487 6.03803C26.6032 5.77047 26.9249 5.64561 27.193 5.76155C27.461 5.87749 27.5862 6.18965 27.47 6.45722C27.4432 6.52857 26.7372 8.13396 24.5568 9.03476C24.5032 9.0526 24.4317 9.07043 24.3602 9.07043Z" fill="black"/>
<path d="M24.3867 13.5298C24.3599 13.5298 24.3331 13.5298 24.3063 13.5209C24.0114 13.4763 23.8059 13.2088 23.8505 12.9144C24.0918 11.2466 23.8773 8.99016 23.8327 8.61557C23.8327 8.58882 23.8237 8.57098 23.8237 8.54422C23.8237 8.2499 24.065 8.00909 24.3599 8.00909C24.6459 8.00909 24.8782 8.23206 24.8961 8.50855C24.9318 8.82071 25.182 11.1931 24.9139 13.075C24.8782 13.3336 24.6459 13.5298 24.3867 13.5298Z" fill="black"/>
<path d="M7.18468 40.5985C7.07745 40.5985 6.96128 40.5628 6.86298 40.4915C5.44213 39.448 2.17149 33.7399 0.732766 28.2994C0.250213 26.48 0 24.8211 0 23.3673C0 16.0896 5.41532 15.3761 8.32851 14.9926C8.6234 14.9569 8.89149 15.162 8.92723 15.4563C8.96298 15.7507 8.75745 16.0182 8.46255 16.0539C4.72723 16.5444 1.07234 17.5166 1.07234 23.3673C1.07234 24.7319 1.30468 26.3016 1.76936 28.0229C3.17234 33.3207 6.37149 38.7969 7.50638 39.6352C7.74766 39.8136 7.79234 40.1436 7.62255 40.3844C7.50638 40.5271 7.34553 40.5985 7.18468 40.5985Z" fill="black"/>
<path d="M25.9864 33.8826C25.6915 33.8826 25.4591 33.6507 25.4502 33.3564C25.4502 33.0621 25.6825 32.8213 25.9774 32.8123C26.3974 32.8034 26.8353 32.7856 27.3625 32.741C30.2311 32.5002 32.1255 31.6975 33.2157 31.0642C33.7519 30.7521 34.1004 30.4667 34.297 30.2972C33.6715 25.2759 33.0996 22.19 31.9379 20.2992C30.8387 18.5155 29.1855 17.7306 26.1115 16.7406C25.8255 16.6514 25.6736 16.3482 25.763 16.0628C25.8523 15.7774 26.1562 15.6258 26.4421 15.715C29.6949 16.7674 31.5804 17.6771 32.8493 19.7373C34.1362 21.8243 34.7349 25.1065 35.3872 30.431C35.4051 30.5826 35.3604 30.7342 35.2532 30.8502C35.2353 30.868 34.7617 31.3942 33.7519 31.9829C32.5723 32.6696 30.517 33.5437 27.4519 33.8023C26.8979 33.8558 26.4332 33.8737 25.9864 33.8826C25.9953 33.8826 25.9864 33.8826 25.9864 33.8826Z" fill="black"/>
<path d="M24.1276 26.0429C23.8327 26.0429 23.5914 25.8021 23.5914 25.5078C23.5914 25.2135 23.8327 24.9727 24.1276 24.9727C25.1106 24.9727 25.8076 24.7676 26.2187 24.5981C25.7629 23.84 24.9587 22.2703 24.4046 19.8711C24.0114 18.1498 23.5289 16.7674 22.9659 15.7774C22.2689 14.5377 21.4557 13.9133 20.5531 13.9133C18.6229 13.9133 16.0136 15.8933 13.9225 18.9703C13.1897 20.0317 12.5106 21.2268 11.9119 22.5289C12.4838 23.0641 13.297 23.7419 13.8778 24.0897L15.7901 20.2725C15.9242 20.0049 16.2459 19.8979 16.505 20.0317C16.7731 20.1654 16.8804 20.4865 16.7463 20.7452L14.6016 25.0262C14.4855 25.2581 14.2084 25.374 13.9582 25.2938C12.8859 24.9548 11.0897 23.2246 10.8842 23.0284C10.7233 22.8678 10.6787 22.636 10.768 22.4308C11.4382 20.9414 12.1978 19.5679 13.0289 18.3549C15.3523 14.9479 18.2387 12.8342 20.5442 12.8342C21.8667 12.8342 22.9927 13.6458 23.8953 15.2512C24.5029 16.3303 25.0301 17.8109 25.4412 19.6303C26.174 22.8143 27.3893 24.4465 27.4072 24.4643C27.5859 24.6962 27.5412 25.0351 27.3089 25.2135C27.2642 25.2492 26.2097 26.0429 24.1276 26.0429Z" fill="black"/>
<path d="M8.40012 36.032C8.31076 36.032 8.21246 36.0052 8.1231 35.9607L6.2465 34.8458C5.99629 34.6942 5.90693 34.3642 6.05884 34.1145C6.21076 33.8647 6.5414 33.7755 6.79161 33.9272L8.6682 35.042C8.91842 35.1936 9.00778 35.5236 8.85586 35.7734C8.75756 35.9428 8.57884 36.032 8.40012 36.032Z" fill="black"/>
<path d="M18.4086 41.0266C17.2826 41.0266 15.0754 40.4825 10.9737 37.8961C9.32049 36.8526 8.13198 35.9607 8.07836 35.925C7.84602 35.7466 7.79241 35.4077 7.97113 35.1758C8.14985 34.9439 8.48049 34.8904 8.72177 35.0688C8.7307 35.0777 9.93709 35.9785 11.5456 36.9953C14.575 38.9039 17.0145 39.9563 18.4086 39.9563C21.7954 39.9563 22.1618 38.3331 22.1618 37.6374C22.1618 36.7634 21.983 34.3285 21.8043 31.9651C21.6167 29.4767 21.4469 27.1311 21.4469 26.2213C21.4469 25.927 21.4647 25.6684 21.4916 25.4365C21.5541 24.9459 21.6792 24.5624 21.7954 24.1968C21.983 23.6081 22.1618 23.0462 22.1618 21.9492C22.1618 20.2636 22.126 19.0328 21.9294 18.4976C21.849 18.2657 21.8222 18.2033 21.2681 18.2033C20.8571 18.2033 19.9188 19.4519 19.3111 21.0663C19.1771 21.4319 19.0073 21.753 18.8554 22.0741C18.5247 22.743 18.2299 23.3138 18.2299 24.0897C18.2299 24.6605 18.2209 25.0976 18.212 25.4722C18.1941 25.9449 18.1584 26.3194 18.1137 26.8189C18.1047 26.9081 18.0779 26.9973 17.9975 27.2381C17.7741 27.9427 17.1843 29.7978 16.9341 32.2594C16.8447 33.1067 16.8001 33.954 16.809 34.7834C16.809 35.0777 16.5767 35.3185 16.2728 35.3185C15.9779 35.3185 15.7367 35.0866 15.7367 34.7834C15.7277 33.9094 15.7724 33.0175 15.8707 32.1434C16.1299 29.5748 16.7464 27.6394 16.9788 26.9081C17.0056 26.81 17.0413 26.7119 17.0503 26.6762C17.095 26.2213 17.1218 25.8646 17.1486 25.4276C17.1664 25.0708 17.1664 24.6427 17.1664 24.0897C17.1664 23.0641 17.5418 22.3149 17.8992 21.5925C18.0511 21.2892 18.1941 20.9949 18.3103 20.6917C18.4443 20.326 19.6864 17.1331 21.2681 17.1331C23.1447 17.1331 23.2341 18.2925 23.2341 21.9492C23.2341 23.2157 23.0107 23.9114 22.823 24.5268C22.7069 24.8835 22.6175 25.1868 22.5639 25.5881C22.5371 25.7754 22.5281 25.9805 22.5281 26.2303C22.5281 27.1043 22.7069 29.5391 22.8856 31.9026C23.0733 34.391 23.243 36.7366 23.243 37.6463C23.2341 39.7601 21.429 41.0266 18.4086 41.0266Z" fill="black"/>
<path d="M16.3893 32.7321C16.2374 32.7321 16.0944 32.6696 15.9872 32.5537L12.4485 28.5581L9.42802 25.1511C9.23143 24.9281 9.2493 24.5892 9.47271 24.393C9.69611 24.1968 10.0357 24.2146 10.2323 24.4376L13.2527 27.8446L16.7914 31.8402C16.988 32.0632 16.9702 32.4021 16.7467 32.5983C16.6395 32.6875 16.5144 32.7321 16.3893 32.7321Z" fill="black"/>
<path d="M8.39985 41.0266C7.87261 41.0266 7.38112 40.866 6.97006 40.5628L6.95219 40.545C6.91644 40.5271 6.88963 40.5004 6.85389 40.4736C6.08538 39.8582 5.25431 38.4758 5.72793 35.4077C5.79942 34.9885 5.88878 34.5961 6.02283 34.2037C6.44283 32.8748 7.23815 31.4032 8.20325 30.1545C9.22198 28.8435 10.3122 27.9337 11.2773 27.5948C12.162 27.2827 12.7875 27.5056 13.1539 27.7464C13.4041 27.907 13.4667 28.2459 13.3058 28.4867C13.145 28.7364 12.8054 28.7989 12.5641 28.6383C12.3318 28.4778 12.0279 28.4689 11.6437 28.6116C10.0441 29.1734 7.85474 32.0007 7.05049 34.5337C6.93432 34.8726 6.85389 35.2115 6.80027 35.5682C6.49644 37.5304 6.76453 39.0109 7.53304 39.6352C7.54198 39.6441 7.55091 39.6531 7.55985 39.6531C7.57772 39.6709 7.59559 39.6798 7.61346 39.6887C7.83687 39.8582 8.11389 39.9385 8.40878 39.9385C9.41857 39.9385 10.0798 38.7969 10.0888 38.779C10.2318 38.5204 10.5624 38.4312 10.8216 38.5739C11.0807 38.7166 11.1701 39.0466 11.0271 39.2963C10.9735 39.3944 10.0352 41.0266 8.39985 41.0266Z" fill="black"/>
<path d="M15.692 25.9003C15.6562 25.9003 15.6205 25.9003 15.5937 25.8913C14.4409 25.6684 13.869 25.2759 13.8064 25.2314C13.5652 25.053 13.5116 24.723 13.6903 24.4822C13.8601 24.2414 14.1996 24.1879 14.432 24.3573C14.4499 24.3662 14.8877 24.6605 15.7992 24.8389C16.0941 24.8924 16.2818 25.1778 16.2282 25.4632C16.1656 25.7219 15.9422 25.9003 15.692 25.9003Z" fill="white"/>
<path d="M28.4171 43.8806C28.149 43.8806 27.9167 43.6755 27.8809 43.399C27.8541 43.1225 27.166 36.5404 27.166 35.4969C27.166 35.2026 27.4073 34.9618 27.7022 34.9618C27.9971 34.9618 28.2384 35.2026 28.2384 35.4969C28.2384 36.2907 28.703 40.9374 28.9533 43.292C28.9801 43.5863 28.7745 43.8449 28.4796 43.8806C28.4528 43.8806 28.435 43.8806 28.4171 43.8806Z" fill="black"/>
<path d="M34.1359 43.8806C33.85 43.8806 33.6176 43.6577 33.5998 43.3722L32.9385 31.5548C32.9385 31.5459 32.9385 31.537 32.9385 31.528C32.9385 31.2337 33.1798 30.9929 33.4746 30.9929C33.7695 30.9929 34.0019 31.2248 34.0108 31.5191L34.6721 43.3187C34.69 43.6131 34.4666 43.8628 34.1627 43.8806C34.1538 43.8806 34.1449 43.8806 34.1359 43.8806Z" fill="black"/>
<path d="M25.5572 43.8806C25.2623 43.8806 25.021 43.6398 25.021 43.3454C25.021 39.4658 25.164 36.0766 25.4499 33.2939C25.6912 30.9037 26.0218 29.004 26.4687 27.4967C26.5491 27.2113 26.8529 27.0508 27.1389 27.1311C27.4248 27.2113 27.5857 27.5146 27.5053 27.8C27.0853 29.227 26.7546 31.1088 26.5223 33.401C26.2363 36.148 26.0933 39.4925 26.0933 43.3454C26.0933 43.6398 25.8521 43.8806 25.5572 43.8806Z" fill="black"/>
<path d="M1.96591 43.8806C1.67101 43.8806 1.42974 43.6398 1.42974 43.3455C1.42974 41.9987 1.30463 40.0455 1.15272 37.7801C0.965057 34.8369 0.750588 31.5013 0.714844 28.1745C0.714844 27.8802 0.947184 27.6394 1.24208 27.6305C1.24208 27.6305 1.24208 27.6305 1.25101 27.6305C1.54591 27.6305 1.78718 27.8624 1.78718 28.1567C1.82293 31.4567 2.0374 34.7745 2.22506 37.7088C2.37697 39.992 2.50208 41.963 2.50208 43.3455C2.50208 43.6398 2.2608 43.8806 1.96591 43.8806Z" fill="black"/>
<path d="M27.7024 11.7728C27.5058 11.7728 27.3181 11.6658 27.2198 11.4785C27.0858 11.2109 27.193 10.8899 27.4611 10.765L30.3207 9.33799C30.5888 9.20421 30.9105 9.31123 31.0356 9.5788C31.1696 9.84636 31.0624 10.1674 30.7943 10.2923L27.9347 11.7193C27.8632 11.755 27.7828 11.7728 27.7024 11.7728Z" fill="black"/>
<path d="M6.2553 11.0593C6.17488 11.0593 6.09445 11.0415 6.01403 11.0058L3.15445 9.5788C2.88637 9.44502 2.77913 9.12394 2.91318 8.8653C3.04722 8.59773 3.36892 8.49071 3.62807 8.62449L6.48764 10.0515C6.75573 10.1853 6.86296 10.5064 6.72892 10.765C6.63956 10.9523 6.4519 11.0593 6.2553 11.0593Z" fill="black"/>
<path d="M29.1321 14.6269C28.8819 14.6269 28.6585 14.4485 28.6048 14.1988C28.5512 13.9134 28.7389 13.6279 29.0248 13.5655L32.5993 12.852C32.8853 12.7896 33.1712 12.9858 33.2338 13.2712C33.2963 13.5566 33.0997 13.842 32.8138 13.9044L29.2393 14.6179C29.2036 14.6269 29.1678 14.6269 29.1321 14.6269Z" fill="black"/>
<path d="M4.82575 13.9134C4.79 13.9134 4.75426 13.9134 4.71851 13.9045L1.14404 13.1909C0.858087 13.1374 0.661491 12.852 0.724044 12.5577C0.786598 12.2634 1.06362 12.0761 1.35851 12.1385L4.93298 12.852C5.21894 12.9055 5.41553 13.1909 5.35298 13.4853C5.29936 13.735 5.07596 13.9134 4.82575 13.9134Z" fill="black"/>
</g>
<defs>
<clipPath id="clip0_9_2">
<rect width="42" height="43.8806" fill="white"/>
</clipPath>
</defs>
</svg>
