<svg width="43" height="52" viewBox="0 0 43 52" fill="none" xmlns="http://www.w3.org/2000/svg">
<path d="M19.4877 34.3158C22.1301 35.9298 23.8163 38.9825 23.5208 42.386C23.1731 46.386 20.0092 49.6491 16.0456 50.0877C10.9521 50.6491 6.6582 46.6316 6.6582 41.614C6.6582 38.5263 8.27493 35.8246 10.7261 34.3333V6.29826C10.7087 3.85966 12.6731 1.8772 15.0895 1.8772C17.5059 1.8772 19.4703 3.85966 19.4703 6.29826V34.3158H19.4877Z" stroke="white" stroke-width="2" stroke-miterlimit="10"/>
<path d="M15.0894 15.1404V38.1228" stroke="white" stroke-width="2" stroke-miterlimit="10"/>
<path d="M17.9566 44.5941C19.5384 42.9978 19.5384 40.4096 17.9566 38.8133C16.3748 37.2169 13.8102 37.2169 12.2284 38.8133C10.6466 40.4096 10.6466 42.9978 12.2284 44.5941C13.8102 46.1904 16.3748 46.1904 17.9566 44.5941Z" stroke="white" stroke-width="2" stroke-miterlimit="10"/>
<path d="M7.875 17.0702H0" stroke="white" stroke-width="2" stroke-miterlimit="10"/>
<path d="M7.87501 12.4211H3.21606" stroke="white" stroke-width="2" stroke-miterlimit="10"/>
<path d="M7.87501 21.7018H3.21606" stroke="white" stroke-width="2" stroke-miterlimit="10"/>
<path d="M7.875 26.3509H0" stroke="white" stroke-width="2" stroke-miterlimit="10"/>
<path d="M24.5637 20.7193H30.7698V26.4562H24.5637" stroke="white" stroke-width="2" stroke-miterlimit="10"/>
<path d="M24.5637 20.7193H30.7698V26.4562H24.5637" stroke="white" stroke-width="2" stroke-miterlimit="10"/>
<path d="M24.5637 26.4562H30.7698V32.2105H24.5637" stroke="white" stroke-width="2" stroke-miterlimit="10"/>
<path d="M34.9073 20.7193H41.1308V26.4562H34.9073H41.1308V32.2105H34.0381H41.1308V26.4562H34.9073V20.7193Z" stroke="white" stroke-width="2" stroke-miterlimit="10"/>
<path d="M41.2525 15.5439C39.7053 17.1053 37.202 17.1053 35.6722 15.5439C34.125 13.9825 34.125 11.4562 35.6722 9.91232C37.2194 8.35092 39.7227 8.35092 41.2525 9.91232" stroke="white" stroke-width="2" stroke-miterlimit="10"/>
<path d="M31.9694 9.0702C30.9612 9.0702 30.1615 8.24564 30.1615 7.24564V6.84213C30.1615 5.82458 30.9786 5.01757 31.9694 5.01757C32.9777 5.01757 33.7774 5.84213 33.7774 6.84213V7.24564C33.7774 8.24564 32.9777 9.0702 31.9694 9.0702Z" stroke="white" stroke-width="2" stroke-miterlimit="10"/>
</svg>
