<svg width="33" height="50" viewBox="0 0 33 50" fill="none" xmlns="http://www.w3.org/2000/svg">
<g clip-path="url(#clip0_3_42)">
<path d="M27.2586 16.9023C26.8284 15.8881 26.014 14.4745 24.6311 13.9521C22.4799 13.153 20.8204 15.2735 18.1929 15.4118C16.6563 15.504 14.3668 14.9201 11.4934 11.6011C11.4934 11.6011 9.92613 16.3184 5.08594 16.3645" stroke="white" stroke-width="2" stroke-miterlimit="10"/>
<path d="M8.09763 36.724V39.6435C8.09763 41.2569 7.05276 42.6705 5.51619 43.1623L1.01404 44.5605" stroke="white" stroke-width="2" stroke-miterlimit="10"/>
<path d="M31.638 44.5606L27.1359 43.147C25.5993 42.6706 24.5544 41.2416 24.5544 39.6282V36.7087" stroke="white" stroke-width="2" stroke-miterlimit="10"/>
<path d="M11.9545 36.6011L7.52922 33.7278C5.31656 32.2987 3.99511 29.8249 4.02584 27.182L4.04121 26.429H2.61219C1.59806 26.429 0.768311 25.5993 0.768311 24.5852V20.9589C0.768311 19.9447 1.59806 19.115 2.61219 19.115H2.95024V10.2029C2.95024 6.94533 5.60851 4.30243 8.8814 4.34853L9.68042 3.65707C11.8316 1.81319 14.5667 0.783684 17.394 0.768318C24.032 0.722221 29.4407 6.10022 29.4407 12.7382V19.1303H29.7327C30.7468 19.1303 31.5765 19.9601 31.5765 20.9742V24.6005C31.5765 25.6147 30.7468 26.4444 29.7327 26.4444H28.319V27.4893C28.3037 30.1629 26.9207 32.6368 24.6466 34.0197L20.2674 36.6933C19.6528 37.0621 18.9459 37.2619 18.2237 37.2619L14.0135 37.2311C13.276 37.2004 12.5692 37.0006 11.9545 36.6011Z" stroke="white" stroke-width="2" stroke-miterlimit="10"/>
<path d="M11.0941 40.7345C9.46533 43.4542 9.88021 46.8501 11.9392 49.0935" stroke="white" stroke-width="2" stroke-miterlimit="10" stroke-linecap="round"/>
<path d="M21.1586 40.7345C22.7721 43.4696 22.3111 46.8654 20.2367 49.0781" stroke="white" stroke-width="2" stroke-miterlimit="10" stroke-linecap="round"/>
<path d="M14.1978 49.5237V47.0344C13.4602 46.4505 12.9993 45.5747 12.9993 44.5605C12.9993 43.5464 13.491 42.6398 14.2285 42.0713V38.9521" stroke="white" stroke-width="2" stroke-miterlimit="10"/>
<path d="M17.9624 38.9521V42.0098C18.7461 42.5784 19.2685 43.5157 19.2685 44.5605C19.2685 45.5747 18.7768 46.4812 18.0239 47.0651V49.5237" stroke="white" stroke-width="2" stroke-miterlimit="10"/>
<path d="M24.4623 20.375C24.4623 21.3737 23.3406 22.1881 21.9577 22.1881C20.5748 22.1881 19.4531 21.3737 19.4531 20.375" stroke="white" stroke-width="2" stroke-miterlimit="10"/>
<path d="M12.7228 20.375C12.7228 21.3737 11.6011 22.1881 10.2182 22.1881C8.83532 22.1881 7.71362 21.3737 7.71362 20.375" stroke="white" stroke-width="2" stroke-miterlimit="10"/>
<path d="M15.9343 22.4801L15.9189 27.3971H18.4543" stroke="white" stroke-width="2" stroke-miterlimit="10"/>
<path d="M13.6141 31.8532H19.1151" stroke="white" stroke-width="2" stroke-miterlimit="10"/>
</g>
<defs>
<clipPath id="clip0_3_42">
<rect width="32.3448" height="50" fill="white"/>
</clipPath>
</defs>
</svg>
