<svg width="48" height="42" viewBox="0 0 48 42" fill="none" xmlns="http://www.w3.org/2000/svg">
<g clip-path="url(#clip0_3_62)">
<path d="M46.3095 22.9411L46.3082 22.9394C44.6102 20.8133 41.5576 19.5791 38.6498 19.5372C35.8775 19.4972 33.1616 20.544 31.8702 23.0264C30.8508 21.7478 29.3732 20.7789 27.8949 20.3104C24.0507 18.9481 20.3564 19.8823 17.4808 22.4391V22.4388V22.4378C17.4808 22.24 17.4805 22.0405 17.4803 21.8396C17.4761 18.6403 17.4716 15.0764 18.493 12.0214C18.9503 12.3792 19.5218 12.6422 20.0995 12.8236C20.81 13.0467 21.5532 13.1536 22.1538 13.1536H22.1612L22.1686 13.1532C23.5539 13.0715 24.9492 12.9891 26.141 12.5308C27.3529 12.0647 28.3509 11.2126 28.9517 9.62247C30.0637 6.70842 28.7761 3.40646 26.7684 1.30942C26.11 0.567784 25.6244 0.136541 25.0295 -0.0811806C24.4417 -0.296311 23.7755 -0.291028 22.7998 -0.250304C20.8243 -0.167848 18.8433 -0.00275478 16.9417 0.328527L16.9404 0.328767C15.2413 0.634249 13.7143 2.0807 12.4386 3.71919C11.3154 5.1619 10.3511 6.80244 9.60819 8.06632C9.50182 8.24728 9.39999 8.42051 9.30289 8.58434L9.30287 8.58433L9.30135 8.58697C4.70449 16.563 0.411395 25.2357 -0.249367 34.5022L-0.25 34.5111V34.52C-0.25 34.6384 -0.221641 34.7756 -0.166979 34.8988C-0.115493 35.0149 -0.0262374 35.1501 0.119045 35.2288C12.4104 43.3211 30.4788 45.0646 43.3726 37.034C48.1532 34.0931 50.0277 27.6814 46.3095 22.9411ZM19.7958 40.3531L19.7956 40.3531C15.9636 40.0264 12.1297 39.1279 8.45771 37.7383L8.45714 37.7381C6.50463 37.0046 4.54905 36.0255 2.75411 34.9631C2.22267 34.6395 1.89491 34.2422 1.70249 33.7978C1.50818 33.3491 1.44568 32.8377 1.47027 32.2811C1.50919 31.4 1.7607 30.4553 2.0089 29.5231C2.07837 29.2622 2.14758 29.0023 2.2118 28.745L2.21231 28.7428C3.27255 24.3312 5.06822 20.159 7.11508 16.1403L7.11599 16.1385C9.08622 12.1913 11.1263 8.18831 13.8959 4.76074C13.9764 4.66392 14.0557 4.56774 14.1343 4.47248C14.8691 3.58129 15.537 2.77124 16.5222 2.2778C17.2221 1.92724 18.0088 1.76717 18.8277 1.67603C19.2366 1.63051 19.6493 1.60257 20.0612 1.57557L20.1245 1.57143C20.5113 1.54612 20.8979 1.52083 21.2713 1.48163C21.4531 1.47146 21.6321 1.45914 21.8086 1.447C22.3656 1.40868 22.898 1.37205 23.4178 1.40978C24.0917 1.4587 24.715 1.63258 25.2796 2.08498L25.2795 2.08501L25.2833 2.08792C26.2861 2.8606 27.0047 4.35866 27.3272 5.56882C27.5251 6.36297 27.6029 7.33314 27.4461 8.22681C27.289 9.12142 26.9027 9.91244 26.1971 10.396L26.1969 10.3957L26.1859 10.4042C25.6973 10.7806 25.106 10.9758 24.4608 11.0852C23.9395 11.1736 23.4007 11.2037 22.8629 11.2338C22.7331 11.241 22.6033 11.2483 22.4738 11.2564C22.3267 11.2574 22.1507 11.286 21.9943 11.3114C21.9512 11.3184 21.9096 11.3251 21.8705 11.331C21.6622 11.3623 21.5036 11.3735 21.3941 11.346L21.3828 11.3432L21.3714 11.3414C20.8819 11.266 20.2144 10.9778 19.7954 10.5675C19.5883 10.3646 19.4583 10.1481 19.4223 9.9297C19.3876 9.71925 19.4344 9.47338 19.6463 9.19041L19.6463 9.19045L19.6497 9.18572C19.7154 9.09358 19.8491 8.99289 20.0562 8.89577C20.258 8.8011 20.5051 8.72108 20.7673 8.65664C21.2934 8.52739 21.8477 8.46866 22.1538 8.46866C22.4097 8.46866 22.6182 8.36615 22.7592 8.2014C22.8956 8.04194 22.9577 7.83791 22.9577 7.64331C22.9577 7.44872 22.8956 7.24469 22.7592 7.08523C22.6182 6.92048 22.4097 6.81797 22.1538 6.81797C21.4234 6.81797 20.3018 7.00945 19.3352 7.43506C18.3824 7.85459 17.4871 8.54578 17.392 9.59332L17.391 9.6046V9.61592V9.61688V9.61784V9.61881V9.61977V9.62073V9.6217V9.62266V9.62362V9.62459V9.62555V9.62651V9.62748V9.62844V9.6294V9.63036V9.63133V9.63229V9.63325V9.63421V9.63518V9.63614V9.6371V9.63806V9.63903V9.63999V9.64095V9.64191V9.64287V9.64384V9.6448V9.64576V9.64672V9.64768V9.64864V9.6496V9.65056V9.65152V9.65249V9.65345V9.65441V9.65537V9.65633V9.65729V9.65825V9.6592V9.66016V9.66112V9.66208V9.66304V9.664V9.66496V9.66592V9.66688V9.66783V9.66879V9.66975V9.67071V9.67166V9.67262V9.67358V9.67453V9.67549V9.67645V9.6774V9.67836V9.67931V9.68027V9.68122V9.68218V9.68313V9.68408V9.68504V9.68599V9.68695V9.6879V9.68885V9.6898V9.69076V9.69171V9.69266V9.69361V9.69456V9.69551V9.69646V9.69741V9.69836V9.69931V9.70026V9.70121V9.70216V9.70311V9.70405V9.705V9.70595V9.7069V9.70784V9.70879V9.70973V9.71068V9.71162V9.71257V9.71351V9.71446V9.7154V9.71634V9.71729V9.71823V9.71917V9.72011V9.72105V9.72199V9.72293V9.72387V9.72481V9.72575V9.72669V9.72763V9.72857V9.72951V9.73044V9.73138V9.73231V9.73325V9.73418V9.73512V9.73605V9.73699V9.73792V9.73885V9.73979V9.74072V9.74165V9.74258V9.74351V9.74444V9.74537V9.7463V9.74723V9.74816V9.74908V9.75001V9.75094V9.75186V9.75279V9.75371V9.75464V9.75556V9.75648V9.75741V9.75833V9.75925V9.76017V9.76109V9.76201V9.76293V9.76385V9.76477V9.76569V9.7666V9.76752V9.76843V9.76935V9.77027V9.77118V9.77209V9.773V9.77392V9.77483V9.77574V9.77665V9.77756V9.77847V9.77938V9.78029V9.78119V9.7821V9.78301V9.78391V9.78482V9.78572V9.78662V9.78753V9.78843V9.78933V9.79023V9.79113V9.79203V9.79293V9.79383V9.79472V9.79562V9.79651V9.79741V9.7983V9.7992V9.80009V9.80098V9.80187V9.80277V9.80366V9.80454V9.80543V9.80632V9.80721V9.80809V9.80898V9.80987V9.81075V9.81163V9.81252V9.8134V9.81428V9.81516V9.81604V9.81692V9.81779V9.81867V9.81955V9.82042V9.8213V9.82217V9.82304V9.82392V9.82479V9.82566V9.82653V9.8274V9.82827V9.82913V9.83V9.83087V9.83173V9.83259V9.83346V9.83432V9.83518V9.83604V9.8369V9.83776V9.83862V9.83947V9.84033V9.84119V9.84204V9.84289V9.84374V9.8446V9.84545V9.8463V9.84715V9.84799V9.84884V9.84969V9.85053V9.85138V9.85222V9.85306V9.8539V9.85474V9.85558V9.85642V9.85726V9.8581V9.85893V9.85977V9.8606V9.86143V9.86226V9.86309V9.86392V9.86475V9.86558V9.86641V9.86723V9.86806V9.86888V9.8697V9.87053V9.87135V9.87217V9.87299V9.8738V9.87462V9.87544V9.87625V9.87706V9.87787V9.87869V9.8795V9.88031V9.88111V9.88192V9.88273V9.88353V9.88434V9.88514V9.88594V9.88674V9.88754V9.88834V9.88914V9.88993V9.89073V9.89152V9.89231V9.89311V9.8939V9.89469V9.89547V9.89626V9.89705V9.89783V9.89862V9.8994V9.90018V9.90096V9.90174V9.90252V9.90329V9.90407V9.90484V9.90562V9.90639V9.90716V9.90793V9.9087V9.90947V9.91023V9.911V9.91176V9.91252V9.91329V9.91405V9.9148V9.91556V9.91632V9.91707V9.91783V9.91858V9.91933V9.92008V9.92083V9.92158V9.92232V9.92307V9.92381V9.92456V9.9253V9.92604V9.92678V9.92751V9.92825V9.92899V9.92972V9.93045V9.93118V9.93191V9.93264V9.93337V9.93409V9.93482V9.93554V9.93626V9.93698V9.9377V9.93842V9.93914V9.93985V9.94056V9.94128V9.94199V9.9427V9.94341V9.94411V9.94482V9.94552V9.94623V9.94693V9.94763V9.94833V9.94902V9.94972V9.95041V9.95111V9.9518V9.95249V9.95318V9.95386V9.95455V9.95523V9.95592V9.9566V9.95728V9.95796V9.95863V9.95931V9.95999V9.96066V9.96133V9.962V9.96267V9.96334V9.964V9.96466V9.96533V9.96599V9.96665V9.96731V9.96796V9.96862V9.96927V9.96992V9.97001C16.1719 12.5286 15.9988 15.4791 15.8382 18.217L15.8325 18.3136L15.8324 18.3151C15.791 19.1025 15.791 19.8888 15.791 20.6573V20.6604C15.791 21.431 15.791 22.183 15.7506 22.9134C15.5116 25.6883 13.6107 27.8469 11.7185 29.8249C11.5421 30.0027 11.4768 30.2213 11.5002 30.4329C11.5229 30.6372 11.626 30.8212 11.7615 30.9569C11.897 31.0926 12.0808 31.1961 12.2852 31.2188C12.4976 31.2425 12.717 31.1762 12.8949 30.998C14.7589 29.1308 16.3374 27.2324 17.0295 24.8371C17.035 24.8329 17.0401 24.8288 17.0448 24.8248H17.1026L17.1776 24.7338C19.8315 21.5114 23.5776 20.0886 27.5583 21.6836L27.5583 21.6837L27.5647 21.6861C29.0835 22.2466 30.6478 23.4375 31.1891 24.9844C31.3112 25.3483 31.663 25.5403 31.9789 25.554C32.1417 25.5611 32.3152 25.5228 32.4601 25.4186C32.6081 25.3121 32.7083 25.1493 32.7389 24.945C33.0343 23.3937 33.8378 22.353 34.9054 21.722C35.9816 21.0859 37.3444 20.8561 38.7592 20.9713C41.6031 21.2028 44.5427 22.8144 45.6414 25.0943L45.643 25.0974C46.7216 27.2583 46.7972 29.3865 46.1337 31.2513C45.469 33.1197 44.056 34.7406 42.1303 35.8658C35.538 39.6974 27.387 41.0073 19.7958 40.3531Z" fill="white" stroke="white" stroke-width="0.5"/>
<path d="M16.757 32.5047L16.7569 32.5047L16.7619 32.5081C19.1219 34.1123 21.8917 34.4414 24.6895 34.5239C27.2392 34.6089 29.0223 33.5794 30.8518 31.9142C31.0382 31.7562 31.1091 31.5451 31.084 31.3377C31.0601 31.1407 30.9531 30.9642 30.8184 30.836C30.6829 30.7071 30.4998 30.608 30.2971 30.5873C30.0881 30.566 29.8714 30.6303 29.6942 30.8051C28.8103 31.6094 27.9566 32.1632 27.0421 32.4981C26.1271 32.8332 25.1376 32.9541 23.9761 32.8739C21.6071 32.7102 19.5303 32.3846 17.6187 31.1092C17.4151 30.965 17.1906 30.9336 16.9863 31.0004C16.7905 31.0644 16.6385 31.2098 16.5428 31.3742C16.355 31.6968 16.3345 32.2024 16.757 32.5047Z" fill="white" stroke="white" stroke-width="0.5"/>
<path d="M19.3417 26.7418L19.3418 26.7418L19.3451 26.7347C19.7991 25.7493 20.7084 25.2096 21.7057 24.6268L21.7058 24.6269L21.7123 24.6228C22.1734 24.3341 22.2007 23.8271 22.0008 23.4838C21.9016 23.3135 21.741 23.1701 21.5366 23.1083C21.3276 23.0451 21.0961 23.0744 20.877 23.21C19.7213 23.8718 18.6032 24.6405 17.9128 25.9373L17.9127 25.9373L17.9098 25.9431C17.673 26.4175 17.9225 26.8581 18.2535 27.0515C18.4202 27.1489 18.6267 27.198 18.8314 27.1547C19.0442 27.1096 19.228 26.9697 19.3417 26.7418Z" fill="white" stroke="white" stroke-width="0.5"/>
<path d="M22.8922 24.0856C23.1481 24.0856 23.3566 23.9831 23.4976 23.8184C23.634 23.6589 23.6961 23.4549 23.6961 23.2603C23.6961 23.0657 23.634 22.8617 23.4976 22.7022C23.3566 22.5374 23.1481 22.4349 22.8922 22.4349C22.6364 22.4349 22.4279 22.5374 22.2869 22.7022C22.1504 22.8617 22.0884 23.0657 22.0884 23.2603C22.0884 23.4549 22.1504 23.6589 22.2869 23.8184C22.4279 23.9831 22.6364 24.0856 22.8922 24.0856Z" fill="white" stroke="white" stroke-width="0.5"/>
</g>
<defs>
<clipPath id="clip0_3_62">
<rect width="48" height="42" fill="white"/>
</clipPath>
</defs>
</svg>
