<svg width="38" height="52" viewBox="0 0 38 52" fill="none" xmlns="http://www.w3.org/2000/svg">
<path d="M31.1256 19.3479C30.6364 18.1946 29.7102 16.587 28.1375 15.9929C25.6911 15.0842 23.8039 17.4957 20.8158 17.6529C19.0684 17.7578 16.4647 17.0938 13.197 13.3193C13.197 13.3193 11.4147 18.6839 5.91028 18.7363" stroke="white" stroke-width="2" stroke-miterlimit="10"/>
<path d="M9.9643 39.356L8.84594 38.6221C6.22481 36.9096 4.65212 33.9739 4.68707 30.8286V30.1995H3.09691C1.94361 30.1995 1 29.2559 1 28.1026V23.9787C1 22.8254 1.94361 21.8817 3.09691 21.8817H3.48135V11.7292C3.48135 8.02465 6.52187 5.01908 10.2264 5.0715L11.1351 4.28516C13.5815 2.18825 16.6919 1.01747 19.9072 1C19.9421 1 19.9596 1 19.9771 1C27.491 1 33.5895 7.09852 33.5895 14.6125V21.8817H33.9215C35.0748 21.8817 36.0184 22.8254 36.0184 23.9787V28.1026C36.0184 29.2559 35.0748 30.1995 33.9215 30.1995H32.3139V31.1781C32.2964 34.3409 30.6713 37.2766 27.9803 38.9366L27.8055 39.0415" stroke="white" stroke-width="2" stroke-miterlimit="10"/>
<path d="M20.1168 38.2376L20.344 41.1209L21.0604 50.4696C21.0954 50.924 21.6196 51.1511 21.9865 50.889C23.5068 49.7532 25.3591 49.1416 27.2463 49.1416C27.6133 49.1416 27.9977 49.1591 28.3646 49.2115L28.487 49.229C28.9413 49.2814 29.2733 48.8271 29.0811 48.4251L24.9397 39.2337L20.4488 29.2908C19.9595 28.1899 18.4043 28.155 17.8626 29.2384L12.6902 39.4259L9.45749 45.7865C9.2478 46.2059 9.59729 46.6952 10.0691 46.6078C10.7855 46.4855 11.502 46.4156 12.2359 46.4156C14.228 46.4156 16.2026 46.9049 17.9849 47.866L18.8586 48.3378" stroke="white" stroke-width="2" stroke-miterlimit="10"/>
<path d="M30.3566 41.9597L33.6767 46.2059" stroke="white" stroke-width="2" stroke-miterlimit="10" stroke-linecap="round"/>
<path d="M33.3099 40.0374L36.2281 40.8762" stroke="white" stroke-width="2" stroke-miterlimit="10" stroke-linecap="round"/>
<path d="M7.25576 41.9596L3.95312 46.2059" stroke="white" stroke-width="2" stroke-miterlimit="10" stroke-linecap="round"/>
<path d="M4.31995 40.0374L1.38428 40.8762" stroke="white" stroke-width="2" stroke-miterlimit="10" stroke-linecap="round"/>
<path d="M28.5043 23.9786C28.5043 25.1145 27.2287 26.0406 25.656 26.0406C24.0834 26.0406 22.8077 25.1145 22.8077 23.9786" stroke="white" stroke-width="2" stroke-miterlimit="10"/>
<path d="M15.1716 23.9786C15.1716 25.1145 13.896 26.0406 12.3233 26.0406C10.7506 26.0406 9.47498 25.1145 9.47498 23.9786" stroke="white" stroke-width="2" stroke-miterlimit="10"/>
</svg>
