<svg width="53" height="45" viewBox="0 0 53 45" fill="none" xmlns="http://www.w3.org/2000/svg">
<path d="M9.07126 19.4928C11.2649 19.4928 13.2572 18.4071 14.4472 16.6425C15.0258 17.1944 15.7969 17.5462 16.6477 17.5862C18.2421 20.9719 21.6165 23.1296 25.3952 23.1296H27.7643C31.5426 23.1296 34.9186 20.9707 36.5126 17.5838C37.35 17.5325 38.1062 17.1758 38.6715 16.6243C39.8587 18.401 41.8534 19.4928 44.0612 19.4928C44.7631 19.4928 45.3341 18.9218 45.3341 18.2199V9.48008C45.3341 6.50886 42.9172 4.09201 39.946 4.09201H38.0807C37.7645 3.34921 37.0274 2.82718 36.1705 2.82718H35.7957C35.4196 2.82718 35.0553 2.93191 34.7395 3.11913C32.9777 1.28455 30.5022 0.140625 27.7643 0.140625H25.3952C22.652 0.140625 20.1725 1.2886 18.4103 3.12883C18.0913 2.93555 17.7209 2.82718 17.3363 2.82718H16.9619C16.1051 2.82718 15.3679 3.34921 15.0517 4.09201H13.1864C10.2156 4.09201 7.79834 6.50926 7.79834 9.48008V18.2199C7.79794 18.9218 8.36929 19.4928 9.07126 19.4928ZM36.3036 16.0206C36.2518 16.0206 36.1932 16.0153 36.1188 16.0048C35.7609 15.9522 35.4144 16.1528 35.2793 16.4876C34.0351 19.5692 31.0853 21.5603 27.7639 21.5603H25.3948C22.0702 21.5603 19.1191 19.5664 17.877 16.4803C17.7557 16.1791 17.4649 15.9886 17.1495 15.9886C17.1034 15.9886 17.0565 15.9927 17.01 16.0008C16.9372 16.0141 16.8717 16.0206 16.8103 16.0206C15.7856 16.0206 14.9526 15.1872 14.9526 14.1629V13.2859C14.9526 12.6701 15.4536 12.1691 16.0695 12.1691H16.507C16.9405 12.1691 17.2919 11.8181 17.2919 11.3842V11.2944C18.8228 9.3519 21.1846 8.19948 23.6605 8.19948H29.4982C31.9745 8.19948 34.3359 9.3519 35.8672 11.2944V11.3842C35.8672 11.8177 36.2186 12.1691 36.6521 12.1691H36.847C37.553 12.1691 38.1272 12.7432 38.1272 13.4497V14.1965C38.1276 15.2021 37.3092 16.0206 36.3036 16.0206ZM43.7648 9.48008V17.9146C41.9411 17.8074 40.3463 16.7153 39.5869 15.0525C39.6581 14.7788 39.6969 14.4921 39.6969 14.1965V13.4493C39.6969 12.8185 39.4887 12.2358 39.1401 11.7631C39.1401 11.7631 39.1312 10.3017 39.113 10.1218C39.0702 9.69075 38.6848 9.37535 38.2542 9.41943C37.8231 9.46229 37.5085 9.84683 37.5514 10.2783C37.5643 10.4061 37.5708 10.5367 37.5708 10.6657V10.6956C37.5263 10.6839 37.4823 10.6705 37.437 10.6612V9.81287C37.437 9.30863 37.3977 8.81329 37.3233 8.32968C37.8834 7.95201 38.2461 7.31232 38.2461 6.60752V5.66092H39.946C42.0515 5.66092 43.7648 7.37418 43.7648 9.48008ZM35.7957 4.39649H36.1705C36.4495 4.39649 36.6764 4.62334 36.6764 4.90194V6.05396C36.4293 5.47047 36.1264 4.91609 35.7751 4.39771C35.7819 4.3973 35.7888 4.39649 35.7957 4.39649ZM25.3952 1.70994H27.7643C31.9555 1.70994 35.4136 4.90841 35.826 8.99283C34.0832 7.48943 31.8338 6.63017 29.4986 6.63017H23.6609C21.3253 6.63017 19.0759 7.48943 17.3331 8.99283C17.7455 4.90841 21.2036 1.70994 25.3952 1.70994ZM16.9615 4.39649H17.3363C17.3521 4.39649 17.3675 4.39811 17.3828 4.39932C17.0185 4.93671 16.7076 5.51292 16.456 6.11946V4.90194C16.456 4.62334 16.6829 4.39649 16.9615 4.39649ZM9.36765 9.48008C9.36765 7.37418 11.0805 5.66092 13.1864 5.66092H14.8867V6.60752C14.8867 7.32768 15.2587 7.97385 15.8333 8.34707C15.7606 8.82542 15.7225 9.3147 15.7225 9.81287V10.622C15.6684 10.6289 15.615 10.6382 15.562 10.6483C15.5624 10.5249 15.5685 10.4016 15.5806 10.2803C15.6239 9.84926 15.3093 9.46471 14.8782 9.42145C14.4472 9.37818 14.0622 9.69277 14.019 10.1238C14.0012 10.3025 13.9919 11.5852 13.9919 11.5852C13.6118 12.0486 13.3833 12.6409 13.3833 13.2859V14.1629C13.3833 14.4921 13.4306 14.8103 13.518 15.112C12.7469 16.7395 11.1646 17.8082 9.36765 17.9146V9.48008Z" fill="white"/>
<path d="M23.9666 12.5876C23.9666 13.2325 23.4442 13.755 22.7992 13.755C22.1547 13.755 21.6318 13.2325 21.6318 12.5876C21.6318 11.943 22.1547 11.4202 22.7992 11.4202C23.4442 11.4202 23.9666 11.943 23.9666 12.5876Z" fill="white"/>
<path d="M31.5267 12.5876C31.5267 13.2325 31.0038 13.755 30.3593 13.755C29.7143 13.755 29.1919 13.2325 29.1919 12.5876C29.1919 11.943 29.7143 11.4202 30.3593 11.4202C31.0038 11.4202 31.5267 11.943 31.5267 12.5876Z" fill="white"/>
<path d="M30.1023 14.6284H23.0564C22.7236 14.6284 22.4054 14.7703 22.183 15.0186C21.9602 15.2664 21.8534 15.5988 21.8898 15.93C22.1514 18.325 24.1676 20.1305 26.5791 20.1305C28.9911 20.1305 31.0073 18.325 31.2689 15.93C31.3049 15.5988 31.1981 15.2664 30.9757 15.0182C30.7533 14.7703 30.4347 14.6284 30.1023 14.6284ZM26.5791 18.5611C25.1206 18.5611 23.8788 17.5721 23.5291 16.1977H29.6296C29.2799 17.5721 28.0381 18.5611 26.5791 18.5611Z" fill="white"/>
<path d="M50.7397 32.4723V31.6239C50.7397 26.2905 46.401 21.9513 41.0675 21.9513H38.6984C33.3649 21.9513 29.0257 26.2905 29.0257 31.6239V32.4327C27.7079 32.6037 26.6865 33.7331 26.6865 35.097V35.9736C26.6865 37.809 28.1366 39.3116 29.9513 39.3969C31.5453 42.7826 34.9197 44.9403 38.6984 44.9403H41.0675C44.8458 44.9403 48.2218 42.7814 49.8158 39.3945C51.5901 39.2861 53.0001 37.8086 53.0001 36.0076V35.2603C53.0001 33.8912 52.0292 32.7444 50.7397 32.4723ZM38.6984 23.5206H41.0675C45.2587 23.5206 48.7167 26.7195 49.1292 30.8039C47.3864 29.3001 45.137 28.4408 42.8018 28.4408H36.9641C34.6289 28.4408 32.3795 29.3001 30.6367 30.8039C31.0487 26.7195 34.5068 23.5206 38.6984 23.5206ZM51.4308 36.0076C51.4308 37.0132 50.6128 37.8312 49.6067 37.8312C49.555 37.8312 49.4963 37.8264 49.4219 37.8159C49.0641 37.7633 48.718 37.9635 48.5825 38.2987C47.3383 41.3803 44.3885 43.3709 41.0675 43.3709H38.6984C35.3733 43.3709 32.4223 41.3771 31.1802 38.2914C31.0588 37.9902 30.7681 37.7993 30.4527 37.7993C30.4066 37.7993 30.3597 37.8033 30.3132 37.8118C30.2404 37.8252 30.1753 37.8312 30.1135 37.8312C29.0892 37.8312 28.2558 36.9983 28.2558 35.9736V35.097C28.2558 34.4811 28.7568 33.9801 29.3727 33.9801H29.8102C30.2437 33.9801 30.595 33.6287 30.595 33.1953V33.1051C32.1263 31.163 34.4878 30.0106 36.9641 30.0106H42.8014C45.2777 30.0106 47.6391 31.163 49.1704 33.1051V33.1953C49.1704 33.6287 49.5218 33.9801 49.9553 33.9801H50.1502C50.8562 33.9801 51.4308 34.5543 51.4308 35.2603V36.0076Z" fill="white"/>
<path d="M37.2707 34.3986C37.2707 35.0436 36.7479 35.566 36.1033 35.566C35.4584 35.566 34.9355 35.0436 34.9355 34.3986C34.9355 33.7541 35.4584 33.2313 36.1033 33.2313C36.7479 33.2313 37.2707 33.7541 37.2707 34.3986Z" fill="white"/>
<path d="M44.8299 34.3986C44.8299 35.0436 44.3074 35.566 43.6625 35.566C43.0175 35.566 42.4951 35.0436 42.4951 34.3986C42.4951 33.7541 43.0175 33.2313 43.6625 33.2313C44.3074 33.2313 44.8299 33.7541 44.8299 34.3986Z" fill="white"/>
<path d="M43.406 36.439H36.3601C36.0273 36.439 35.7091 36.5814 35.4867 36.8292C35.2643 37.0775 35.1571 37.4099 35.1935 37.7411C35.4551 40.1357 37.4708 41.9415 39.8828 41.9415C42.2948 41.9415 44.311 40.1357 44.5726 37.7415C44.609 37.4099 44.5022 37.0775 44.2798 36.8296C44.057 36.5814 43.7388 36.439 43.406 36.439ZM39.8828 40.3722C38.4239 40.3722 37.1821 39.3828 36.8328 38.0087H42.9333C42.5835 39.3828 41.3418 40.3722 39.8828 40.3722Z" fill="white"/>
<path d="M24.0536 32.4719V31.6239C24.0536 26.2905 19.7145 21.9513 14.381 21.9513H12.0119C6.67838 21.9513 2.33921 26.2905 2.33921 31.6239V32.4331C1.02141 32.6037 0 33.7335 0 35.097V35.9736C0 37.809 1.45003 39.312 3.26479 39.3969C4.85876 42.783 8.23313 44.9407 12.0119 44.9407H14.381C18.1597 44.9407 21.5353 42.7814 23.1293 39.3945C24.9032 39.2861 26.3136 37.8082 26.3136 36.0076V35.2603C26.3136 33.8912 25.3427 32.7444 24.0536 32.4719ZM24.7443 36.0076C24.7443 37.0132 23.9259 37.8312 22.9202 37.8312C22.8685 37.8312 22.8098 37.8264 22.7354 37.8159C22.3784 37.7633 22.031 37.9635 21.896 38.2987C20.6518 41.3803 17.702 43.3709 14.3806 43.3709H12.0115C8.68682 43.3709 5.73582 41.3771 4.49363 38.2914C4.37232 37.9902 4.08159 37.7993 3.76619 37.7993C3.72009 37.7993 3.67359 37.8033 3.62669 37.8118C3.5539 37.8252 3.4884 37.8312 3.42693 37.8312C2.40269 37.8312 1.56931 36.9983 1.56931 35.9736V35.097C1.56931 34.4811 2.07031 33.9801 2.68615 33.9801H3.12366C3.55714 33.9801 3.90852 33.6287 3.90852 33.1953V33.1051C5.43983 31.163 7.80128 30.0106 10.2776 30.0106H16.1153C16.6486 30.0106 17.1816 30.0623 17.6996 30.165C18.1245 30.2495 18.5374 29.9729 18.6219 29.548C18.706 29.123 18.4298 28.7097 18.0044 28.6256C17.3866 28.5031 16.7505 28.4408 16.1153 28.4408H10.2776C7.9424 28.4408 5.69296 29.3001 3.94977 30.8039C4.36221 26.7195 7.82028 23.5206 12.0119 23.5206H14.381C18.5709 23.5206 22.0282 26.7175 22.4423 30.7999C22.0808 30.4869 21.6966 30.1994 21.2894 29.9406C20.9235 29.7085 20.4387 29.8169 20.2062 30.1828C19.9741 30.5488 20.0824 31.0336 20.4484 31.2657C21.23 31.7618 21.9126 32.3817 22.4839 33.1079V33.1953C22.4839 33.6287 22.8353 33.9797 23.2688 33.9797H23.4637C24.1697 33.9797 24.7443 34.5543 24.7443 35.2603V36.0076Z" fill="white"/>
<path d="M10.5842 34.3986C10.5842 35.0436 10.0614 35.566 9.41681 35.566C8.77186 35.566 8.24902 35.0436 8.24902 34.3986C8.24902 33.7541 8.77186 33.2313 9.41681 33.2313C10.0614 33.2313 10.5842 33.7541 10.5842 34.3986Z" fill="white"/>
<path d="M18.1434 34.3986C18.1434 35.0436 17.6209 35.566 16.976 35.566C16.3314 35.566 15.8086 35.0436 15.8086 34.3986C15.8086 33.7541 16.3314 33.2313 16.976 33.2313C17.6209 33.2313 18.1434 33.7541 18.1434 34.3986Z" fill="white"/>
<path d="M16.719 36.439H9.67308C9.34029 36.439 9.02206 36.5814 8.79967 36.8292C8.57687 37.0775 8.47012 37.4099 8.50651 37.7411C8.76813 40.1357 10.7843 41.9415 13.1958 41.9415C15.6078 41.9415 17.624 40.1357 17.8856 37.7411C17.9216 37.4099 17.8148 37.0775 17.5924 36.8292C17.37 36.5814 17.0518 36.439 16.719 36.439ZM13.1958 40.3722C11.7373 40.3722 10.4955 39.3828 10.1458 38.0087H16.2463C15.8966 39.3832 14.6548 40.3722 13.1958 40.3722Z" fill="white"/>
</svg>
