<svg width="43" height="52" viewBox="0 0 43 52" fill="none" xmlns="http://www.w3.org/2000/svg">
<path d="M19.4877 34.3158C22.1301 35.9298 23.8163 38.9825 23.5208 42.386C23.1731 46.386 20.0092 49.6491 16.0456 50.0877C10.9521 50.6491 6.6582 46.6316 6.6582 41.614C6.6582 38.5263 8.27493 35.8246 10.7261 34.3333V6.29825C10.7087 3.85965 12.6731 1.8772 15.0895 1.8772C17.5059 1.8772 19.4703 3.85965 19.4703 6.29825V34.3158H19.4877Z" stroke="white" stroke-width="2" stroke-miterlimit="10"/>
<path d="M15.0894 15.1404V38.1228" stroke="white" stroke-width="2" stroke-miterlimit="10"/>
<path d="M17.9566 44.5941C19.5384 42.9978 19.5384 40.4096 17.9566 38.8133C16.3748 37.2169 13.8102 37.2169 12.2284 38.8133C10.6466 40.4096 10.6466 42.9978 12.2284 44.5941C13.8102 46.1904 16.3748 46.1904 17.9566 44.5941Z" stroke="white" stroke-width="2" stroke-miterlimit="10"/>
<path d="M7.875 17.0702H0" stroke="white" stroke-width="2" stroke-miterlimit="10"/>
<path d="M7.87476 12.421H3.21582" stroke="white" stroke-width="2" stroke-miterlimit="10"/>
<path d="M7.87476 21.7018H3.21582" stroke="white" stroke-width="2" stroke-miterlimit="10"/>
<path d="M7.875 26.3508H0" stroke="white" stroke-width="2" stroke-miterlimit="10"/>
<path d="M24.564 20.7194H30.7701V26.4562H24.564" stroke="white" stroke-width="2" stroke-miterlimit="10"/>
<path d="M24.564 20.7194H30.7701V26.4562H24.564" stroke="white" stroke-width="2" stroke-miterlimit="10"/>
<path d="M24.564 26.4562H30.7701V32.2106H24.564" stroke="white" stroke-width="2" stroke-miterlimit="10"/>
<path d="M34.9073 20.7194H41.1308V26.4562H34.9073H41.1308V32.2106H34.0381H41.1308V26.4562H34.9073V20.7194Z" stroke="white" stroke-width="2" stroke-miterlimit="10"/>
<path d="M41.2524 15.5438C39.7052 17.1052 37.2019 17.1052 35.6721 15.5438C34.1249 13.9824 34.1249 11.4561 35.6721 9.91226C37.2193 8.35086 39.7226 8.35086 41.2524 9.91226" stroke="white" stroke-width="2" stroke-miterlimit="10"/>
<path d="M31.9696 9.07021C30.9613 9.07021 30.1616 8.24565 30.1616 7.24565V6.84214C30.1616 5.8246 30.9787 5.01758 31.9696 5.01758C32.9778 5.01758 33.7775 5.84214 33.7775 6.84214V7.24565C33.7775 8.24565 32.9778 9.07021 31.9696 9.07021Z" stroke="white" stroke-width="2" stroke-miterlimit="10"/>
</svg>
