<svg width="53" height="53" viewBox="0 0 53 53" fill="none" xmlns="http://www.w3.org/2000/svg">
<path d="M51.9648 21.3759H43.4766V19.1848C43.4766 18.6131 43.013 18.1497 42.4414 18.1497H20.082C19.5104 18.1497 19.0469 18.6131 19.0469 19.1848C19.0469 19.7565 19.5104 20.22 20.082 20.22H41.4062V28.1561C41.4062 35.1277 37.6841 41.6071 31.6739 45.1327H11.8026C5.79242 41.6072 2.07031 35.1277 2.07031 28.1562V20.2201H9.00586C9.57747 20.2201 10.041 19.7566 10.041 19.1849C10.041 18.6132 9.57747 18.1498 9.00586 18.1498H1.03516C0.463543 18.1498 0 18.6132 0 19.1849V28.1562C0 32.0691 1.05172 35.9058 3.0415 39.2513C4.38337 41.5076 6.1245 43.5001 8.16345 45.1328H1.03516C0.463543 45.1328 0 45.5962 0 46.1679C0 49.9352 3.06479 52.9999 6.83203 52.9999H39.1289C42.8961 52.9999 45.9609 49.9352 45.9609 46.1679C45.9609 45.5962 45.4974 45.1328 44.9258 45.1328H35.3131C37.1897 43.6301 38.8132 41.822 40.1061 39.7844H43.028C48.5266 39.7844 53 35.311 53 29.8125V22.4111C53 21.8394 52.5366 21.3759 51.9648 21.3759ZM43.7773 47.2031C43.3034 49.3326 41.3991 50.9296 39.1289 50.9296H6.83203C4.56183 50.9296 2.65766 49.3326 2.18366 47.2031H11.5253H31.9512H43.7773ZM43.4766 28.1562V27.5869H46.7891V29.8125C46.7891 31.8863 45.1019 33.5735 43.028 33.5735H42.7929C43.2448 31.8131 43.4766 29.9931 43.4766 28.1562ZM50.9297 29.8125C50.9297 34.1694 47.385 37.7141 43.028 37.7141H41.2662C41.5967 37.0391 41.8919 36.348 42.1499 35.6438H43.028C46.2435 35.6438 48.8594 33.0279 48.8594 29.8125V26.5517C48.8594 25.98 48.3958 25.5166 47.8242 25.5166H43.4766V23.4462H50.9297V29.8125Z" fill="white"/>
<path d="M22.7267 5.7289L22.1881 5.05263C21.3975 4.06012 21.3963 2.6727 22.1853 1.67875C22.5408 1.23094 22.4659 0.579826 22.0181 0.224457C21.5702 -0.131119 20.9191 -0.0560706 20.5637 0.391738C19.1722 2.14488 19.1743 4.59188 20.5687 6.34254L21.1073 7.01881C22.1405 8.31586 22.1421 10.1289 21.1111 11.428L20.5591 12.1234C20.2036 12.5712 20.2786 13.2223 20.7264 13.5777C20.9168 13.7287 21.1438 13.8021 21.3692 13.8021C21.6742 13.8021 21.9763 13.6679 22.1808 13.4104L22.7327 12.715C24.3662 10.6569 24.3638 7.7841 22.7267 5.7289Z" fill="white"/>
<path d="M28.4645 8.05629L27.9259 7.38013C27.1353 6.38752 27.1341 5.0001 27.9231 4.00614C28.2786 3.55833 28.2037 2.90722 27.7559 2.55185C27.3079 2.19627 26.6569 2.27132 26.3015 2.71913C24.91 4.47227 24.9121 6.91928 26.3065 8.67003L26.8451 9.3463C27.8782 10.6435 27.8798 12.4566 26.8487 13.7555L26.2969 14.4509C25.9414 14.8987 26.0164 15.5498 26.4642 15.9052C26.6546 16.0562 26.8816 16.1295 27.107 16.1295C27.412 16.1295 27.7142 15.9952 27.9186 15.7378L28.4703 15.0425C30.1039 12.9845 30.1015 10.1117 28.4645 8.05629Z" fill="white"/>
<path d="M16.9889 8.05641L16.4504 7.38025C15.6597 6.38774 15.6586 5.00022 16.4475 4.00626C16.8029 3.55845 16.728 2.90734 16.2802 2.55186C15.8323 2.19639 15.1813 2.27154 14.8258 2.71914C13.4344 4.47229 13.4365 6.91939 14.831 8.67005L15.3696 9.34632C16.4026 10.6435 16.4042 12.4567 15.3733 13.7555L14.8213 14.4508C14.4659 14.8986 14.5407 15.5497 14.9885 15.9052C15.1789 16.0562 15.4058 16.1296 15.6313 16.1296C15.9363 16.1296 16.2385 15.9954 16.4428 15.738L16.9948 15.0426C18.6283 12.9846 18.6259 10.1118 16.9889 8.05641Z" fill="white"/>
<path d="M15.5561 18.4527C15.3635 18.2602 15.0965 18.1494 14.8242 18.1494C14.552 18.1494 14.2849 18.2602 14.0924 18.4527C13.8999 18.6463 13.7891 18.9123 13.7891 19.1846C13.7891 19.4568 13.8998 19.7239 14.0924 19.9175C14.2849 20.11 14.552 20.2197 14.8242 20.2197C15.0965 20.2197 15.3635 20.11 15.5561 19.9175C15.7495 19.7239 15.8594 19.4579 15.8594 19.1846C15.8594 18.9123 15.7495 18.6453 15.5561 18.4527Z" fill="white"/>
<path d="M37.4729 27.1211C36.9013 27.1211 36.4378 27.5845 36.4378 28.1562C36.4378 31.9986 34.8792 35.7748 32.1617 38.5164C31.7593 38.9224 31.7623 39.5779 32.1683 39.9803C32.3701 40.1804 32.6336 40.2803 32.897 40.2803C33.1635 40.2802 33.4299 40.1779 33.6323 39.9737C36.7309 36.8475 38.5081 32.5402 38.5081 28.1562C38.5081 27.5845 38.0445 27.1211 37.4729 27.1211Z" fill="white"/>
<path d="M30.4215 41.3261C30.1406 40.8281 29.5092 40.6522 29.0113 40.933L28.9877 40.9464C28.4897 41.2273 28.3138 41.8587 28.5947 42.3566C28.7849 42.6938 29.1357 42.8834 29.4972 42.8834C29.6695 42.8834 29.8442 42.8402 30.0048 42.7496L30.0285 42.7363C30.5265 42.4553 30.7023 41.824 30.4215 41.3261Z" fill="white"/>
</svg>
