<svg width="58" height="62" viewBox="0 0 58 62" fill="none" xmlns="http://www.w3.org/2000/svg">
<path d="M49.8703 22.5522V20.6121C49.8703 15.1084 47.7267 9.93197 43.8337 6.03648C40.9056 3.10816 37.2189 1.14936 33.1729 0.372105C31.8929 0.125182 30.5758 0 29.2581 0C24.5504 0 19.9467 1.62896 16.2954 4.58676C15.9 4.90702 15.839 5.48723 16.1594 5.88255C16.4797 6.27812 17.06 6.33881 17.4553 6.01854C20.7796 3.32573 24.9713 1.84271 29.2581 1.84271C30.4589 1.84271 31.6586 1.95671 32.8247 2.18152C36.5079 2.88925 39.8642 4.67275 42.5306 7.33915C46.0753 10.8865 48.0276 15.6003 48.0276 20.6121V22.5902C41.582 22.507 32.6934 21.6022 25.2174 17.9644C20.5474 15.6918 18.622 13.3952 18.6052 13.3746C18.3592 13.0721 17.9488 12.9572 17.5819 13.0876C17.2144 13.218 16.9689 13.5658 16.9689 13.9557C16.9689 15.6035 16.1554 17.4212 14.6781 19.0742C13.5253 20.3641 12.0449 21.4497 10.4914 22.1657V20.612C10.4914 16.0896 12.1219 11.7211 15.0829 8.31124C15.4166 7.92698 15.3755 7.34505 14.9913 7.0114C14.6072 6.67774 14.0253 6.71877 13.6915 7.10304C10.4395 10.8482 8.64864 15.6457 8.64864 20.612V22.5608C8.51682 22.5539 8.38476 22.5488 8.25233 22.5488C4.18657 22.5488 0.878906 25.8558 0.878906 29.9207C0.878906 33.9864 4.1867 37.2942 8.25233 37.2942C8.47113 37.2942 8.68869 37.2826 8.90453 37.2637C10.4648 47.0925 18.9973 54.6303 29.2581 54.6303C29.2903 54.6303 29.3226 54.6294 29.3549 54.6293C29.0073 55.5601 28.8227 56.5413 28.8227 57.5398C28.8227 57.6061 28.8234 57.6722 28.825 57.7371C28.8908 60.5355 31.3735 61.9998 33.7917 61.9998C36.21 61.9998 38.6926 60.5355 38.7584 57.7382C38.76 57.6722 38.7609 57.6061 38.7609 57.5399C38.7609 55.9211 38.2775 54.3472 37.3962 52.9618C39.0574 52.2479 40.6167 51.3179 42.0445 50.1876C42.4435 49.8718 42.5108 49.2923 42.1951 48.8933C41.8792 48.4943 41.2998 48.4271 40.9008 48.7428C39.4702 49.8753 37.8944 50.7865 36.2102 51.4579C35.6488 50.8751 35.0045 50.3474 34.2851 49.8918C33.984 49.7011 33.6001 49.7011 33.299 49.8918C32.0761 50.6663 31.0685 51.6473 30.3209 52.7572C29.9694 52.777 29.6139 52.7876 29.2586 52.7876C18.9106 52.7876 10.4917 44.3688 10.4917 34.0206V24.1661C12.5692 23.3657 14.5241 22.0122 16.0525 20.302C17.2969 18.9098 18.1502 17.3889 18.551 15.8817C19.6724 16.8432 21.5242 18.2006 24.272 19.5528C28.6709 21.7175 36.3311 24.2892 48.0281 24.4325V34.0206C48.0281 38.6967 46.2981 43.1765 43.1566 46.6349C42.8145 47.0115 42.8425 47.5943 43.2191 47.9363C43.3957 48.0966 43.6173 48.1757 43.8384 48.1757C44.089 48.1757 44.3388 48.074 44.5207 47.8739C47.2295 44.8918 48.9823 41.2181 49.6106 37.2919C49.6567 37.2928 49.7028 37.2944 49.749 37.2944C53.8147 37.2944 57.1224 33.9867 57.1224 29.9211C57.1219 25.8971 53.8798 22.6178 49.8703 22.5522ZM33.7915 51.7835C35.7861 53.2345 36.9178 55.3041 36.9178 57.54C36.9178 57.5911 36.9172 57.6421 36.9158 57.6938C36.8943 58.6088 36.212 60.1572 33.7913 60.1572C31.3706 60.1572 30.6883 58.6088 30.6668 57.6927C30.6655 57.6419 30.665 57.5909 30.665 57.5399C30.6652 55.3041 31.7969 53.2345 33.7915 51.7835ZM8.25233 35.4517C5.20265 35.4517 2.72162 32.9707 2.72162 29.921C2.72162 26.8721 5.20265 24.3917 8.25233 24.3917C8.38513 24.3917 8.51732 24.3976 8.64864 24.4067V27.5928C7.36648 27.5603 5.75239 27.9963 4.99098 29.7476C4.78816 30.2142 5.00191 30.7571 5.46861 30.9599C5.58826 31.012 5.71283 31.0366 5.83543 31.0366C6.1912 31.0366 6.53001 30.8293 6.68087 30.4823C6.94622 29.872 7.40395 29.547 8.12138 29.4596C8.307 29.437 8.48685 29.4344 8.64876 29.4417V34.0208C8.64876 34.4952 8.66633 34.9656 8.69802 35.4322C8.55048 35.4439 8.40196 35.4517 8.25233 35.4517ZM49.8211 35.45C49.8538 34.976 49.8703 34.4994 49.8703 34.0209V29.4325C50.5073 29.3994 51.4256 29.5349 51.8375 30.4824C51.9884 30.8294 52.3272 31.0367 52.6829 31.0367C52.8055 31.0367 52.9302 31.012 53.0498 30.96C53.5165 30.7572 53.7302 30.2143 53.5274 29.7478C52.7661 27.9968 51.1524 27.5606 49.8703 27.5928V24.3949C52.8636 24.4602 55.2791 26.9132 55.2791 29.9212C55.2792 32.9465 52.8372 35.4108 49.8211 35.45Z" fill="white"/>
<path d="M25.9659 36.818C26.0074 36.7765 26.0526 36.7354 26.1006 36.6958C26.8452 36.0807 27.9229 36.1331 28.6078 36.818C28.7807 36.9908 29.0149 37.0879 29.2594 37.0879C29.2595 37.0879 29.2596 37.0879 29.2596 37.0879C29.5041 37.0879 29.7385 36.9906 29.9113 36.8176C30.5949 36.133 31.673 36.0805 32.4177 36.6954C32.4663 36.7357 32.5115 36.7767 32.5522 36.8174C32.7323 36.9977 32.9683 37.0879 33.2044 37.0879C33.4399 37.0879 33.6755 36.9982 33.8554 36.8186C34.2156 36.4592 34.2161 35.8758 33.8566 35.5157C33.7748 35.4338 33.686 35.353 33.5917 35.275C32.3294 34.2329 30.5877 34.1533 29.2593 34.9933C27.9298 34.1532 26.1883 34.2332 24.9271 35.2753C24.8344 35.3518 24.7455 35.4324 24.6629 35.5151C24.3031 35.8749 24.3031 36.4583 24.6629 36.818C25.0228 37.1778 25.606 37.1778 25.9659 36.818Z" fill="white"/>
<path d="M23.6769 27.7122C23.168 27.7122 22.7556 28.1247 22.7556 28.6335C22.7556 30.4316 21.2927 31.8946 19.4944 31.8946C18.4419 31.8946 17.4483 31.382 16.8364 30.5234C16.5412 30.109 15.9661 30.0122 15.5513 30.3077C15.1369 30.603 15.0404 31.1783 15.3356 31.5927C16.2925 32.9356 17.8472 33.7373 19.4944 33.7373C22.3086 33.7373 24.5983 31.4478 24.5983 28.6335C24.5983 28.1246 24.1859 27.7122 23.6769 27.7122Z" fill="white"/>
<path d="M42.2555 30.3076C41.8411 30.0121 41.2656 30.1089 40.9705 30.5232C40.3586 31.3819 39.3649 31.8945 38.3123 31.8945C36.5141 31.8945 35.0512 30.4315 35.0512 28.6334C35.0512 28.1246 34.6388 27.712 34.1299 27.712C33.6209 27.712 33.2085 28.1246 33.2085 28.6334C33.2085 31.4477 35.4981 33.7372 38.3123 33.7372C39.9593 33.7372 41.5141 32.9355 42.4711 31.5925C42.7664 31.1783 42.6698 30.603 42.2555 30.3076Z" fill="white"/>
<path d="M34.721 44.2055C35.1147 44.2055 35.4794 43.951 35.6012 43.5549C35.751 43.0686 35.478 42.553 34.9916 42.4034C33.4447 41.9274 31.844 41.6483 30.2265 41.5679C29.4682 40.3828 28.4186 39.3362 27.1292 38.5194C26.8283 38.3289 26.4444 38.3288 26.1431 38.5194C23.3404 40.2948 21.667 43.1538 21.667 46.1674C21.667 46.233 21.6679 46.2985 21.6693 46.3647C21.7353 49.1632 24.2178 50.6273 26.6361 50.6273C29.0544 50.6273 31.5369 49.1632 31.6029 46.3637C31.6044 46.2984 31.6052 46.2329 31.6052 46.1673C31.6052 45.2515 31.4498 44.3502 31.1561 43.4891C32.2727 43.6097 33.3758 43.834 34.4499 44.1645C34.5399 44.1924 34.6311 44.2055 34.721 44.2055ZM29.7606 46.3213C29.7389 47.2363 29.0568 48.7847 26.6359 48.7847C24.2153 48.7847 23.533 47.2363 23.5114 46.3223C23.5102 46.2708 23.5096 46.2192 23.5096 46.1675C23.5096 43.9316 24.6413 41.862 26.6359 40.411C28.6305 41.862 29.7622 43.9316 29.7622 46.1675C29.7624 46.2191 29.7618 46.2707 29.7606 46.3213Z" fill="white"/>
</svg>
