<svg width="51" height="51" viewBox="0 0 51 51" fill="none" xmlns="http://www.w3.org/2000/svg">
<path d="M38.2233 11.146C38.6459 10.8441 39.0461 10.5077 39.4194 10.1344C41.7923 7.76138 42.7281 4.27097 41.8614 1.02519C41.7694 0.680745 41.5004 0.4117 41.1559 0.319761C37.91 -0.546841 34.4197 0.38869 32.0466 2.76178C31.3242 3.48425 30.7321 4.3129 30.2836 5.20978C29.8357 4.31649 29.243 3.48923 28.5156 2.76178C26.1426 0.388889 22.6521 -0.546841 19.4063 0.31986C19.0619 0.4118 18.7929 0.680845 18.7009 1.02529C17.8342 4.27106 18.7699 7.76148 21.1429 10.1345C21.5146 10.5062 21.9139 10.8413 22.3353 11.1427C21.2733 11.5837 20.2456 12.1137 19.264 12.7313C18.7983 13.0242 18.6582 13.6391 18.9512 14.1049C19.2441 14.5705 19.8591 14.7105 20.3248 14.4177C23.3024 12.5446 26.7452 11.5546 30.2812 11.5546C40.6071 11.5546 49.0077 19.9553 49.0077 30.2812C49.0077 40.6071 40.6071 49.0077 30.2812 49.0077C30.0341 49.0077 29.7873 49.0011 29.5408 48.9915C36.5177 45.6578 41.3728 38.5257 41.4168 30.285C41.4171 30.277 41.4174 30.2688 41.4175 30.2607V30.2606C41.4175 30.2601 41.4175 30.2596 41.4175 30.2592C41.4175 30.2591 41.4175 30.2591 41.4175 30.2591C41.4175 30.2586 41.4175 30.2582 41.4175 30.2577C41.4175 30.2577 41.4175 30.2576 41.4175 30.2575C41.4175 30.2571 41.4175 30.2566 41.4175 30.2561C41.4175 30.256 41.4175 30.2558 41.4175 30.2557C41.4175 30.2553 41.4175 30.2549 41.4175 30.2546C41.4175 30.2544 41.4175 30.2542 41.4175 30.254C41.4175 30.2537 41.4175 30.2533 41.4175 30.2529C41.4175 30.2528 41.4175 30.2526 41.4175 30.2525C41.4175 30.2521 41.4175 30.2518 41.4175 30.2514C41.4175 30.2513 41.4175 30.2511 41.4175 30.251C41.4175 30.2506 41.4175 30.2502 41.4175 30.2498C41.4175 30.2496 41.4175 30.2493 41.4175 30.249C41.4175 30.2488 41.4175 30.2485 41.4175 30.2482C41.4175 30.2479 41.4175 30.2476 41.4175 30.2474C41.4175 30.2472 41.4175 30.2468 41.4175 30.2466C41.4175 30.2456 41.4175 30.2445 41.4175 30.2434C41.4175 30.2423 41.4175 30.2413 41.4175 30.2402C41.4175 30.24 41.4175 30.2398 41.4175 30.2396C41.4175 30.2393 41.4175 30.2389 41.4175 30.2386C41.4175 30.2385 41.4175 30.2384 41.4175 30.2384C41.4175 30.238 41.4175 30.2375 41.4175 30.237C41.4175 30.2368 41.4175 30.2366 41.4175 30.2364C41.4175 30.2361 41.4175 30.2357 41.4175 30.2354C41.4175 30.2353 41.4175 30.235 41.4175 30.2348C41.4175 30.2345 41.4175 30.2341 41.4175 30.2338C41.4175 30.2336 41.4175 30.2335 41.4175 30.2333C41.4175 30.2329 41.4175 30.2326 41.4175 30.2323C41.4175 30.2322 41.4175 30.2321 41.4175 30.232C41.4175 30.2316 41.4175 30.2311 41.4175 30.2307C41.4175 30.2306 41.4175 30.2304 41.4175 30.2303C41.4175 30.2299 41.4175 30.2295 41.4175 30.2291C41.4175 30.229 41.4175 30.2289 41.4175 30.2288C41.4175 30.2284 41.4175 30.228 41.4175 30.2275C41.4175 30.2274 41.4175 30.2273 41.4175 30.2272C41.4175 30.2268 41.4175 30.2264 41.4175 30.2259C41.4175 30.2258 41.4175 30.2258 41.4175 30.2258C41.4175 30.2253 41.4175 30.2248 41.4175 30.2243V30.2241C41.4175 30.2236 41.4175 30.2232 41.4175 30.2227C41.4175 30.2222 41.4175 30.2216 41.4175 30.2211C41.4175 30.22 41.4175 30.219 41.4174 30.2179C41.4047 29.7153 41.0194 29.3019 40.5254 29.2505C40.4847 29.2463 40.4432 29.2444 40.4015 29.2453C40.3988 29.2453 40.396 29.2454 40.3933 29.2455C40.3929 29.2455 40.3923 29.2455 40.3918 29.2455C40.3829 29.2457 40.3739 29.2461 40.365 29.2466C40.3646 29.2466 40.3641 29.2466 40.3636 29.2467C40.363 29.2467 40.3624 29.2465 40.3621 29.2468C40.3584 29.247 40.3549 29.2472 40.3513 29.2475H11.5848C11.7566 26.116 12.7081 23.0781 14.36 20.4176C14.6502 19.9503 14.5065 19.3362 14.0392 19.0459C13.572 18.7559 12.9577 18.8993 12.6674 19.3668C10.8198 22.3425 9.76213 25.744 9.58841 29.2474H0.996105C0.446361 29.2474 0.000509214 29.6928 1.11667e-05 30.2425C-0.00566657 35.8 2.15396 41.0234 6.08086 44.9504C9.98276 48.8523 15.1623 51.0002 20.6683 51.0002H20.6898C22.3324 50.9985 23.9312 50.8023 25.4653 50.4353C25.4785 50.439 25.491 50.4435 25.5045 50.4467C27.0609 50.814 28.668 51.0003 30.2814 51.0003C41.7057 51.0003 51.0001 41.7059 51.0001 30.2816C51 21.6688 45.7177 14.2682 38.2233 11.146ZM33.4555 4.17036C35.1877 2.43815 37.6753 1.67704 40.0661 2.11502C40.5042 4.50614 39.743 6.99349 38.0107 8.7256C37.3435 9.39298 36.5721 9.91623 35.7171 10.2873C35.0693 10.111 34.409 9.96533 33.7377 9.85218L35.5207 8.06917C35.9097 7.6802 35.9097 7.04947 35.5207 6.6604C35.1317 6.27142 34.501 6.27142 34.1119 6.6604L31.2786 9.49378C31.2785 9.48064 31.2775 9.46739 31.2775 9.45424C31.2775 9.44418 31.2777 9.43412 31.2778 9.42406C31.2801 7.46036 32.0608 5.56509 33.4555 4.17036ZM22.5518 8.7256C20.8196 6.99339 20.0584 4.50614 20.4964 2.11502C22.8873 1.67714 25.3749 2.43825 27.107 4.17036C28.5041 5.56738 29.2749 7.43038 29.2858 9.38053C29.2857 9.40683 29.2851 9.43302 29.2852 9.45932C29.2852 9.47107 29.285 9.48293 29.2849 9.49468L26.4506 6.6604C26.0616 6.27142 25.4309 6.27142 25.0418 6.6604C24.6528 7.04937 24.6528 7.6801 25.0418 8.06917L26.8242 9.85158C26.155 9.96424 25.4927 10.1092 24.8396 10.2865C23.9865 9.91513 23.2167 9.39049 22.5518 8.7256ZM19.717 44.0682C16.7278 43.8626 13.9236 42.701 11.6592 40.7296L19.717 32.652V44.0682ZM21.7092 32.6521L29.744 40.7066C27.5554 42.6085 24.7686 43.837 21.7092 44.0637V32.6521ZM31.1509 39.2961L23.1138 31.2392H34.4952C34.2733 34.3065 33.049 37.1009 31.1509 39.2961ZM18.3125 31.2392L10.2527 39.3188C8.28751 37.048 7.12776 34.2378 6.91997 31.2392H18.3125ZM20.6878 49.0075C20.6811 49.0075 20.675 49.0075 20.6684 49.0075C15.695 49.0074 11.015 47.0665 7.48964 43.5412C4.17484 40.2264 2.25308 35.8898 2.017 31.2391H4.9247C5.15888 35.1077 6.77484 38.7109 9.53761 41.4737C12.5175 44.4536 16.4732 46.094 20.6783 46.094H20.6949C20.6996 46.094 20.7044 46.0938 20.7093 46.0938C20.7106 46.0938 20.7119 46.094 20.7132 46.094C20.7155 46.094 20.7178 46.0937 20.7201 46.0937C29.094 46.0719 35.9682 39.5003 36.4908 31.2392H39.3952C38.8413 41.1154 30.649 48.9974 20.6878 49.0075Z" fill="white"/>
<path d="M38.25 19.4725C38.512 19.4725 38.769 19.366 38.9542 19.1807C39.1395 18.9954 39.2461 18.7384 39.2461 18.4764C39.2461 18.2145 39.1395 17.9575 38.9542 17.7722C38.769 17.5869 38.512 17.4803 38.25 17.4803C37.988 17.4803 37.731 17.5869 37.5458 17.7722C37.3605 17.9575 37.2539 18.2145 37.2539 18.4764C37.2539 18.7384 37.3605 18.9954 37.5458 19.1807C37.731 19.366 37.988 19.4725 38.25 19.4725Z" fill="white"/>
<path d="M36.3574 22.162C36.0954 22.162 35.8385 22.2686 35.6532 22.4538C35.4679 22.6391 35.3613 22.8961 35.3613 23.1581C35.3613 23.4201 35.4679 23.677 35.6532 23.8623C35.8385 24.0476 36.0954 24.1542 36.3574 24.1542C36.6194 24.1542 36.8764 24.0476 37.0617 23.8623C37.2469 23.677 37.3535 23.4201 37.3535 23.1581C37.3535 22.8961 37.2469 22.6391 37.0617 22.4538C36.8764 22.2686 36.6194 22.162 36.3574 22.162Z" fill="white"/>
<path d="M42.1348 24.1542C42.3967 24.1542 42.6537 24.0476 42.839 23.8623C43.0243 23.677 43.1309 23.4201 43.1309 23.1581C43.1309 22.8961 43.0243 22.6391 42.839 22.4538C42.6537 22.2686 42.3967 22.162 42.1348 22.162C41.8728 22.162 41.6158 22.2686 41.4305 22.4538C41.2453 22.6391 41.1387 22.8961 41.1387 23.1581C41.1387 23.4201 41.2453 23.677 41.4305 23.8623C41.6158 24.0476 41.8728 24.1542 42.1348 24.1542Z" fill="white"/>
<path d="M16.2861 17.3787C16.5491 17.3787 16.8051 17.2731 16.9904 17.0879C17.1766 16.9016 17.2822 16.6456 17.2822 16.3826C17.2822 16.1207 17.1766 15.8647 16.9904 15.6784C16.8051 15.4931 16.5481 15.3875 16.2861 15.3875C16.0242 15.3875 15.7672 15.4931 15.5819 15.6784C15.3966 15.8637 15.29 16.1207 15.29 16.3826C15.29 16.6456 15.3966 16.9016 15.5819 17.0879C15.7672 17.2731 16.0242 17.3787 16.2861 17.3787Z" fill="white"/>
</svg>
