<svg width="24" height="24" viewBox="0 0 24 24" fill="none" xmlns="http://www.w3.org/2000/svg">
<ellipse cx="12.5" cy="12" rx="10.5" ry="10" fill="white"/>
<path d="M12 0C5.376 0 0 5.376 0 12C0 14.544 0.792 16.896 2.136 18.84L0.888001 23.232L5.424 22.032C7.32 23.28 9.576 24 12 24C18.624 24 24 18.624 24 12C24 5.376 18.624 0 12 0ZM19.296 15.864C18.912 18.36 16.584 19.272 14.568 18.672C10.32 17.424 7.248 14.736 5.232 10.824C4.728 9.864 4.56 8.784 4.776 7.68C4.968 6.696 5.568 5.952 6.312 5.328C6.6 5.088 6.936 5.016 7.368 5.04C8.016 5.016 8.352 5.232 8.592 6.048C8.832 6.888 9.264 7.656 9.624 8.472C9.768 8.832 9.744 9.12 9.48 9.384C9.168 9.72 8.856 10.104 8.544 10.44C8.352 10.656 8.328 10.848 8.472 11.112C9.648 13.2 11.376 14.616 13.608 15.456C13.872 15.552 14.016 15.432 14.16 15.264C14.496 14.808 14.856 14.376 15.192 13.92C15.432 13.56 15.72 13.512 16.104 13.704C17.016 14.136 17.952 14.568 18.888 15C19.32 15.216 19.368 15.36 19.296 15.864Z" fill="url(#paint0_linear_1102_38)"/>
<defs>
<linearGradient id="paint0_linear_1102_38" x1="12" y1="0" x2="12" y2="24" gradientUnits="userSpaceOnUse">
<stop stop-color="#FFC24A"/>
<stop offset="1" stop-color="#FF951A"/>
</linearGradient>
</defs>
</svg>
