<svg width="40" height="60" viewBox="0 0 40 60" fill="none" xmlns="http://www.w3.org/2000/svg">
<path d="M0 0C13.1099 0 26.1111 0 39.1667 0C39.1667 16.1567 39.1667 32.2579 39.1667 48.4516C26.1473 48.4516 13.0918 48.4516 0 48.4516C0 32.2949 0 16.1937 0 0ZM5.05201 37.7545C5.32362 37.5324 5.39606 37.4398 5.48659 37.3843C7.00763 36.7181 7.27924 36.2924 7.27924 34.5898C7.27924 33.794 7.27924 33.0167 7.27924 32.2209C7.27924 25.6138 7.27924 18.9883 7.27924 12.3812C7.27924 11.1043 6.9352 10.0864 5.57713 9.71622C5.41416 9.67921 5.25119 9.58667 5.10633 9.53115C5.17876 9.45712 5.25119 9.36459 5.30552 9.29056C8.16651 9.29056 11.0094 9.29056 13.9066 9.29056C13.8523 9.43862 13.8523 9.51265 13.8161 9.54966C13.7436 9.60518 13.6712 9.6607 13.5807 9.69772C12.2226 10.0679 11.8786 11.1043 11.8605 12.3627C11.8605 12.8624 11.8242 13.3806 11.8786 13.8803C11.8967 14.1579 12.0777 14.417 12.1864 14.6761C12.4037 14.5096 12.6391 14.3985 12.802 14.1949C13.8885 12.955 14.8844 11.6225 16.0252 10.438C18.18 8.19864 20.5883 6.2739 23.6304 5.45959C26.1292 4.79334 28.5918 4.94139 30.5475 6.90315C32.4669 8.82788 33.1006 11.3634 33.155 14.0654C33.2636 18.6551 32.1409 22.9858 30.4207 27.1684C27.8857 33.3683 24.4814 39.0315 20.3529 44.269C20.0089 44.7131 19.7191 45.1943 19.3932 45.657C18.9767 46.2862 19.3027 46.6749 19.8459 46.9155C20.1175 47.0265 20.4434 47.0265 20.7513 47.0265C26.1111 47.0265 31.471 47.0265 36.8308 47.0265C37.1205 47.0265 37.4283 47.008 37.6818 46.9895C37.6818 31.7397 37.6818 16.6194 37.6818 1.46206C25.5679 1.48057 13.5445 1.48057 1.46671 1.48057C1.46671 16.6749 1.46671 31.8322 1.46671 47.045C5.17876 47.045 8.83649 46.8785 12.458 47.1006C14.9025 47.2486 16.4055 46.4898 17.8178 44.3985C21.2764 39.235 24.5539 33.9975 26.3646 27.9642C27.27 24.9661 27.8675 21.9124 27.4149 18.7477C26.7268 13.9729 22.7974 11.5114 18.5059 13.2326C16.0071 14.269 14.0153 15.9901 12.4942 18.2295C12.0959 18.8032 11.8786 19.6175 11.8786 20.3393C11.8242 24.9661 11.8605 29.5928 11.8423 34.2381C11.8423 35.7372 12.0959 37.0142 13.7618 37.4584C13.8342 37.4769 13.8704 37.5879 13.9972 37.773C11.0094 37.7545 8.14841 37.7545 5.05201 37.7545Z" fill="#171695"/>
<path d="M6.06603 59.8526L1.08645 52.4497V59.8526H0V50.7471H1.24942L6.08414 57.9463V50.7471H7.1706V59.8526H6.06603Z" fill="#171695"/>
<path d="M8.60114 55.2992C8.60114 52.9673 10.2127 50.6354 13.1642 50.6354C16.0977 50.6354 17.7273 52.9858 17.7273 55.3177C17.7273 57.6496 16.0977 60 13.1642 60C10.2127 60 8.60114 57.6311 8.60114 55.2992ZM16.5504 55.3177C16.5504 53.3374 15.2285 51.6718 13.1823 51.6718C11.1362 51.6718 9.81434 53.3374 9.81434 55.3177C9.81434 57.2979 11.1362 58.9821 13.1823 58.9821C15.2285 58.9821 16.5504 57.2979 16.5504 55.3177Z" fill="#171695"/>
<path d="M23.7935 55.1703C24.9524 55.6329 25.4232 56.5398 25.4232 57.3356C25.4232 58.6126 24.4454 59.8526 22.5984 59.8526H19.1399V50.7471H22.526C24.21 50.7471 25.1516 51.8575 25.1516 53.1345C25.1697 53.8563 24.7351 54.7446 23.7935 55.1703ZM23.9927 53.2455C23.9927 52.5608 23.5581 51.765 22.363 51.765H20.335V54.8001H22.3268C23.54 54.8001 23.9927 54.0043 23.9927 53.2455ZM24.2462 57.2986C24.2462 56.3547 23.5219 55.707 22.4174 55.707H20.3169V58.8347H22.4174C23.6849 58.8347 24.2462 58.0759 24.2462 57.2986Z" fill="#171695"/>
<path d="M32.4851 59.8526H26.8718V50.7471H32.3765V51.765H28.0125V54.7816H32.0867V55.7995H28.0125V58.8532H32.467V59.8526H32.4851Z" fill="#171695"/>
<path d="M39.1303 59.8526H33.8248V50.7471H34.9837V58.8347H39.1303V59.8526Z" fill="#171695"/>
</svg>
